SplineFontDB: 3.2
FontName: PoliceSNCF
FullName: PoliceSNCF
FamilyName: PoliceSNCF
Weight: Medium
Copyright: 
Version: 1.00
ItalicAngle: 0
UnderlinePosition: -158
UnderlineWidth: 10
Ascent: 819
Descent: 205
InvalidEm: 0
sfntRevision: 0x00010000
LayerCount: 2
Layer: 0 1 "Arri+AOgA-re" 1
Layer: 1 1 "Avant" 0
XUID: [1021 917 944653034 11720837]
StyleMap: 0x0020
FSType: 0
OS2Version: 0
OS2_WeightWidthSlopeOnly: 0
OS2_UseTypoMetrics: 0
CreationTime: -2082844800
ModificationTime: 1579537363
PfmFamily: 17
TTFWeight: 500
TTFWidth: 5
LineGap: 0
VLineGap: 0
Panose: 2 11 6 0 0 0 0 0 0 0
OS2TypoAscent: 1024
OS2TypoAOffset: 0
OS2TypoDescent: -256
OS2TypoDOffset: 0
OS2TypoLinegap: 0
OS2WinAscent: 1393
OS2WinAOffset: 0
OS2WinDescent: 256
OS2WinDOffset: 0
HheadAscent: 1024
HheadAOffset: 0
HheadDescent: -256
HheadDOffset: 0
OS2SubXSize: 512
OS2SubYSize: 512
OS2SubXOff: 0
OS2SubYOff: -512
OS2SupXSize: 512
OS2SupYSize: 512
OS2SupXOff: 0
OS2SupYOff: 256
OS2StrikeYSize: 51
OS2StrikeYPos: 256
OS2Vendor: 'DTPS'
OS2UnicodeRanges: 00000000.00000000.00000000.00000000
Lookup: 258 0 0 "'kern' Horizontal Kerning lookup 0" { "'kern' Horizontal Kerning lookup 0 subtable"  } ['kern' () ]
MarkAttachClasses: 1
DEI: 91125
TtTable: prep
PUSHW_2
 511
 512
SCANTYPE
SCANCTRL
SVTCA[y-axis]
EndTTInstrs
TtTable: fpgm
PUSHB_5
 4
 3
 2
 1
 0
FDEF
DUP
GC[cur]
DUP
ROUND[Grey]
SUB
ABS
PUSHB_1
 3
CINDEX
GC[cur]
DUP
ROUND[Grey]
SUB
ABS
GT
IF
SWAP
DUP
PUSHB_1
 0
SWAP
WS
MDAP[rnd]
MDRP[rp0,min,rnd,grey]
SLOOP
ALIGNRP
PUSHB_1
 3
LOOPCALL
PUSHB_1
 0
RS
MDAP[rnd]
SLOOP
ALIGNRP
PUSHB_1
 3
LOOPCALL
ELSE
MDAP[rnd]
PUSHB_1
 0
SWAP
WS
SLOOP
ALIGNRP
PUSHB_1
 3
LOOPCALL
PUSHB_1
 0
RS
MDRP[rp0,min,rnd,grey]
SLOOP
ALIGNRP
PUSHB_1
 3
LOOPCALL
EIF
ENDF
FDEF
MDRP[min,rnd,grey]
ENDF
FDEF
SRP1
SRP2
SLOOP
IP
ENDF
FDEF
MPPEM
PUSHB_1
 65
LT
IF
ALIGNRP
ELSE
POP
EIF
ENDF
FDEF
PUSHB_5
 0
 0
 0
 0
 6
MINDEX
PUSHB_1
 6
MINDEX
PUSHB_1
 0
CALL
ENDF
SVTCA[y-axis]
SVTCA[y-axis]
EndTTInstrs
ShortTable: cvt  12
  0
  0
  0
  0
  0
  0
  0
  0

StartChar: two
Encoding: 50 50 0
Width: 747
Flags: W
LayerCount: 2
Fore
SplineSet
413 563 m 2,0,-1
 67 184 l 1,1,-1
 67 0 l 1,2,-1
 681 0 l 1,3,-1
 681 184 l 1,4,-1
 306 184 l 1,5,-1
 488 389 l 2,6,7
 501 403 501 403 530 434 c 0,8,9
 567 473 567 473 589 498 c 0,10,11
 612 525 612 525 633 558 c 256,12,13
 655 592 655 592 668 633 c 0,14,15
 681 673 681 673 681 717 c 0,16,17
 681 773 681 773 655 828 c 256,18,19
 629 883 629 883 586 929 c 0,20,21
 541 973 541 973 485 998 c 256,22,23
 430 1024 430 1024 374 1024 c 256,24,25
 318 1024 318 1024 262 998 c 256,26,27
 207 972 207 972 163 929 c 0,28,29
 118 884 118 884 92 828 c 256,30,31
 66 773 66 773 67 717 c 1,32,-1
 251 717 l 1,33,34
 251 740 251 740 261 762 c 0,35,36
 271 784 271 784 290 802 c 0,37,38
 307 819 307 819 330 829 c 0,39,40
 352 839 352 839 374 840 c 256,41,42
 397 840 397 840 419 829 c 0,43,44
 441 819 441 819 459 802 c 0,45,46
 476 784 476 784 486 762 c 0,47,48
 496 739 496 739 497 717 c 0,49,50
 497 695 497 695 488 673 c 0,51,52
 479 650 479 650 467 631 c 0,53,54
 454 611 454 611 441 595 c 0,55,56
 426 577 426 577 413 563 c 2,0,-1
EndSplineSet
Validated: 41
EndChar

StartChar: equal
Encoding: 61 61 1
Width: 2585
Flags: W
LayerCount: 2
Fore
SplineSet
205 0 m 1,0,-1
 563 0 l 1,1,-1
 742 614 l 1,2,-1
 384 614 l 1,3,-1
 205 0 l 1,0,-1
0 794 m 1,4,-1
 1152 794 l 1,5,-1
 1203 1024 l 1,6,-1
 51 1024 l 1,7,-1
 0 794 l 1,4,-1
1766 384 m 1,8,-1
 1971 384 l 1,9,-1
 1920 230 l 1,10,-1
 1690 230 l 2,11,12
 1597 230 1597 230 1549 281 c 0,13,14
 1502 330 1502 330 1502 412 c 0,15,16
 1502 507 1502 507 1562 614 c 1,17,-1
 1203 614 l 1,18,19
 1134 424 1134 424 1135 289 c 0,20,21
 1135 144 1135 144 1211 72 c 0,22,23
 1287 0 1287 0 1423 0 c 2,24,-1
 2232 0 l 1,25,-1
 2371 614 l 1,26,-1
 1818 614 l 1,27,-1
 1766 384 l 1,8,-1
1254 794 m 1,28,-1
 2406 794 l 1,29,-1
 2458 1024 l 1,30,-1
 1792 1024 l 2,31,32
 1734 1024 1734 1024 1648 1006 c 0,33,34
 1562 987 1562 987 1477 953 c 0,35,36
 1391 920 1391 920 1329 879 c 256,37,38
 1267 837 1267 837 1254 794 c 1,28,-1
EndSplineSet
Validated: 41
EndChar

StartChar: zero
Encoding: 48 48 2
Width: 747
Flags: W
LayerCount: 2
Fore
SplineSet
374 0 m 256,0,1
 430 0 430 0 485 26 c 256,2,3
 540 52 540 52 586 96 c 0,4,5
 630 140 630 140 655 196 c 256,6,7
 681 251 681 251 681 307 c 2,8,-1
 681 717 l 2,9,10
 681 773 681 773 655 828 c 256,11,12
 629 883 629 883 586 929 c 0,13,14
 541 973 541 973 485 998 c 256,15,16
 430 1024 430 1024 374 1024 c 256,17,18
 318 1024 318 1024 262 998 c 256,19,20
 207 972 207 972 163 929 c 0,21,22
 118 884 118 884 92 828 c 256,23,24
 66 773 66 773 67 717 c 2,25,-1
 67 307 l 2,26,27
 67 251 67 251 92 196 c 256,28,29
 118 141 118 141 163 96 c 0,30,31
 207 51 207 51 262 26 c 256,32,33
 318 0 318 0 374 0 c 256,0,1
374 184 m 256,34,35
 351 184 351 184 330 195 c 0,36,37
 307 205 307 205 290 223 c 0,38,39
 272 240 272 240 261 263 c 0,40,41
 251 285 251 285 251 307 c 2,42,-1
 251 717 l 2,43,44
 251 740 251 740 261 762 c 0,45,46
 271 784 271 784 290 802 c 0,47,48
 307 819 307 819 330 829 c 0,49,50
 352 839 352 839 374 840 c 256,51,52
 397 840 397 840 419 829 c 0,53,54
 441 819 441 819 459 802 c 0,55,56
 476 784 476 784 486 762 c 0,57,58
 496 739 496 739 497 717 c 2,59,-1
 497 307 l 2,60,61
 497 284 497 284 486 263 c 0,62,63
 476 240 476 240 459 223 c 0,64,65
 441 205 441 205 419 195 c 0,66,67
 397 184 397 184 374 184 c 256,34,35
EndSplineSet
Validated: 41
EndChar

StartChar: one
Encoding: 49 49 3
Width: 389
Flags: W
LayerCount: 2
Fore
SplineSet
102 0 m 1,0,-1
 287 0 l 1,1,-1
 287 1024 l 1,2,-1
 102 1024 l 1,3,-1
 102 0 l 1,0,-1
EndSplineSet
Validated: 9
EndChar

StartChar: three
Encoding: 51 51 4
Width: 747
Flags: W
LayerCount: 2
Fore
SplineSet
630 840 m 1,0,-1
 630 1024 l 1,1,-1
 118 1024 l 1,2,-1
 118 840 l 1,3,-1
 398 840 l 1,4,-1
 203 658 l 1,5,-1
 302 505 l 2,6,7
 304 507 304 507 310 514 c 0,8,9
 317 524 317 524 329 528 c 256,10,11
 340 532 340 532 374 532 c 0,12,13
 397 532 397 532 419 522 c 0,14,15
 441 512 441 512 459 495 c 0,16,17
 476 477 476 477 486 455 c 0,18,19
 496 432 496 432 497 410 c 2,20,-1
 497 307 l 2,21,22
 497 284 497 284 486 263 c 0,23,24
 476 240 476 240 459 223 c 0,25,26
 441 205 441 205 419 195 c 0,27,28
 396 185 396 185 374 184 c 256,29,30
 351 184 351 184 330 195 c 0,31,32
 307 205 307 205 290 223 c 0,33,34
 272 240 272 240 261 263 c 0,35,36
 251 285 251 285 251 307 c 1,37,-1
 67 307 l 1,38,39
 67 251 67 251 92 196 c 256,40,41
 118 141 118 141 163 96 c 0,42,43
 207 51 207 51 262 26 c 256,44,45
 317 0 317 0 374 0 c 256,46,47
 430 0 430 0 485 26 c 256,48,49
 540 52 540 52 586 96 c 0,50,51
 630 140 630 140 655 196 c 256,52,53
 681 251 681 251 681 307 c 2,54,-1
 681 410 l 2,55,56
 681 466 681 466 660 515 c 0,57,58
 638 563 638 563 607 599 c 0,59,60
 574 635 574 635 543 657 c 256,61,62
 511 680 511 680 485 693 c 1,63,-1
 630 840 l 1,0,-1
EndSplineSet
Validated: 9
EndChar

StartChar: four
Encoding: 52 52 5
Width: 686
Flags: W
LayerCount: 2
Fore
SplineSet
374 369 m 1,0,-1
 241 369 l 1,1,-1
 374 655 l 1,2,-1
 374 369 l 1,0,-1
36 369 m 1,3,-1
 36 184 l 1,4,-1
 374 184 l 1,5,-1
 374 0 l 1,6,-1
 558 0 l 1,7,-1
 558 184 l 1,8,-1
 650 184 l 1,9,-1
 650 369 l 1,10,-1
 558 369 l 1,11,-1
 558 1024 l 1,12,-1
 375 1024 l 1,13,-1
 36 369 l 1,3,-1
EndSplineSet
Validated: 9
EndChar

StartChar: five
Encoding: 53 53 6
Width: 747
Flags: W
LayerCount: 2
Fore
SplineSet
374 717 m 0,0,1
 339 717 339 717 326 715 c 256,2,3
 313 713 313 713 302 708 c 1,4,-1
 302 840 l 1,5,-1
 630 840 l 1,6,-1
 630 1024 l 1,7,-1
 118 1024 l 1,8,-1
 118 565 l 1,9,-1
 302 505 l 1,10,11
 303 514 303 514 318 523 c 256,12,13
 333 532 333 532 374 532 c 0,14,15
 397 532 397 532 419 522 c 0,16,17
 441 512 441 512 459 495 c 0,18,19
 476 477 476 477 486 455 c 0,20,21
 496 432 496 432 497 410 c 2,22,-1
 497 307 l 2,23,24
 497 284 497 284 486 263 c 0,25,26
 476 240 476 240 459 223 c 0,27,28
 441 205 441 205 419 195 c 0,29,30
 396 185 396 185 374 184 c 256,31,32
 351 184 351 184 330 195 c 0,33,34
 307 205 307 205 290 223 c 0,35,36
 272 240 272 240 261 263 c 0,37,38
 251 285 251 285 251 307 c 1,39,-1
 67 307 l 1,40,41
 67 251 67 251 92 196 c 256,42,43
 118 141 118 141 163 96 c 0,44,45
 207 51 207 51 262 26 c 256,46,47
 317 0 317 0 374 0 c 256,48,49
 430 0 430 0 485 26 c 256,50,51
 540 52 540 52 586 96 c 0,52,53
 630 140 630 140 655 196 c 256,54,55
 681 251 681 251 681 307 c 2,56,-1
 681 410 l 2,57,58
 681 466 681 466 655 521 c 256,59,60
 629 576 629 576 586 622 c 0,61,62
 541 666 541 666 485 691 c 256,63,64
 430 717 430 717 374 717 c 0,0,1
EndSplineSet
Validated: 9
EndChar

StartChar: six
Encoding: 54 54 7
Width: 747
Flags: W
LayerCount: 2
Fore
SplineSet
497 717 m 1,0,-1
 681 717 l 1,1,2
 681 773 681 773 655 828 c 256,3,4
 629 883 629 883 586 929 c 0,5,6
 541 973 541 973 485 998 c 256,7,8
 430 1024 430 1024 374 1024 c 256,9,10
 318 1024 318 1024 262 998 c 256,11,12
 207 972 207 972 163 929 c 0,13,14
 118 884 118 884 92 828 c 256,15,16
 66 773 66 773 67 717 c 2,17,-1
 67 307 l 2,18,19
 67 251 67 251 92 196 c 256,20,21
 118 141 118 141 163 96 c 0,22,23
 207 51 207 51 262 26 c 256,24,25
 317 0 317 0 374 0 c 256,26,27
 430 0 430 0 485 26 c 256,28,29
 540 52 540 52 586 96 c 0,30,31
 630 140 630 140 655 196 c 256,32,33
 681 251 681 251 681 307 c 256,34,35
 681 363 681 363 655 419 c 256,36,37
 629 474 629 474 586 519 c 0,38,39
 541 563 541 563 485 589 c 256,40,41
 430 615 430 615 374 614 c 0,42,43
 327 614 327 614 295 603 c 0,44,45
 263 591 263 591 251 583 c 1,46,-1
 251 717 l 2,47,48
 251 740 251 740 261 762 c 0,49,50
 271 784 271 784 290 802 c 0,51,52
 307 819 307 819 330 829 c 0,53,54
 352 839 352 839 374 840 c 256,55,56
 397 840 397 840 419 829 c 0,57,58
 441 819 441 819 459 802 c 0,59,60
 476 784 476 784 486 762 c 0,61,62
 497 740 497 740 497 717 c 1,0,-1
497 307 m 256,63,64
 497 284 497 284 486 263 c 0,65,66
 476 240 476 240 459 223 c 0,67,68
 441 205 441 205 419 195 c 0,69,70
 396 185 396 185 374 184 c 256,71,72
 351 184 351 184 330 195 c 0,73,74
 307 205 307 205 290 223 c 0,75,76
 272 240 272 240 261 263 c 0,77,78
 251 285 251 285 251 307 c 256,79,80
 251 330 251 330 261 352 c 0,81,82
 271 374 271 374 290 392 c 0,83,84
 307 409 307 409 330 420 c 0,85,86
 352 430 352 430 374 430 c 256,87,88
 397 430 397 430 419 420 c 0,89,90
 441 410 441 410 459 392 c 0,91,92
 476 374 476 374 486 352 c 0,93,94
 497 330 497 330 497 307 c 256,63,64
EndSplineSet
Validated: 41
EndChar

StartChar: seven
Encoding: 55 55 8
Width: 716
Flags: W
LayerCount: 2
Fore
SplineSet
271 0 m 1,0,-1
 681 840 l 1,1,-1
 681 1024 l 1,2,-1
 67 1024 l 1,3,-1
 67 840 l 1,4,-1
 476 840 l 1,5,-1
 67 0 l 1,6,-1
 271 0 l 1,0,-1
EndSplineSet
Validated: 9
EndChar

StartChar: eight
Encoding: 56 56 9
Width: 747
Flags: W
LayerCount: 2
Fore
SplineSet
671 727 m 0,0,1
 671 783 671 783 647 838 c 0,2,3
 622 891 622 891 581 934 c 0,4,5
 538 976 538 976 484 1000 c 0,6,7
 430 1024 430 1024 374 1024 c 256,8,9
 318 1024 318 1024 264 1000 c 0,10,11
 210 975 210 975 168 934 c 0,12,13
 126 891 126 891 101 838 c 0,14,15
 76 784 76 784 77 727 c 0,16,17
 77 692 77 692 88 657 c 0,18,19
 98 621 98 621 114 593 c 0,20,21
 129 563 129 563 144 545 c 0,22,23
 159 526 159 526 168 522 c 1,24,25
 126 483 126 483 96 428 c 0,26,27
 66 372 66 372 67 307 c 0,28,29
 67 251 67 251 92 196 c 256,30,31
 118 141 118 141 163 96 c 0,32,33
 207 51 207 51 262 26 c 256,34,35
 317 0 317 0 374 0 c 256,36,37
 430 0 430 0 485 26 c 256,38,39
 540 52 540 52 586 96 c 0,40,41
 630 140 630 140 655 196 c 256,42,43
 681 251 681 251 681 307 c 0,44,45
 681 372 681 372 651 428 c 0,46,47
 621 483 621 483 580 522 c 1,48,49
 588 525 588 525 603 545 c 0,50,51
 618 563 618 563 634 593 c 0,52,53
 649 622 649 622 660 657 c 0,54,55
 671 692 671 692 671 727 c 0,0,1
486 727 m 256,56,57
 486 681 486 681 454 648 c 0,58,59
 420 614 420 614 374 614 c 256,60,61
 328 614 328 614 295 648 c 0,62,63
 261 681 261 681 261 727 c 256,64,65
 261 773 261 773 295 807 c 0,66,67
 328 840 328 840 374 840 c 256,68,69
 420 840 420 840 454 807 c 0,70,71
 486 773 486 773 486 727 c 256,56,57
251 307 m 256,72,73
 251 330 251 330 261 352 c 0,74,75
 271 374 271 374 290 392 c 0,76,77
 307 409 307 409 330 420 c 0,78,79
 352 430 352 430 374 430 c 256,80,81
 397 430 397 430 419 420 c 0,82,83
 441 410 441 410 459 392 c 0,84,85
 476 374 476 374 486 352 c 0,86,87
 496 329 496 329 497 307 c 256,88,89
 497 284 497 284 486 263 c 0,90,91
 476 240 476 240 459 223 c 0,92,93
 441 205 441 205 419 195 c 0,94,95
 396 185 396 185 374 184 c 256,96,97
 351 184 351 184 330 195 c 0,98,99
 307 205 307 205 290 223 c 0,100,101
 272 240 272 240 261 263 c 0,102,103
 251 284 251 284 251 307 c 256,72,73
EndSplineSet
Validated: 41
EndChar

StartChar: nine
Encoding: 57 57 10
Width: 747
Flags: W
LayerCount: 2
Fore
SplineSet
374 410 m 0,0,1
 421 410 421 410 454 422 c 0,2,3
 486 433 486 433 497 441 c 1,4,-1
 497 307 l 2,5,6
 497 284 497 284 486 263 c 0,7,8
 476 240 476 240 459 223 c 0,9,10
 441 205 441 205 419 195 c 0,11,12
 396 185 396 185 374 184 c 256,13,14
 351 184 351 184 330 195 c 0,15,16
 307 205 307 205 290 223 c 0,17,18
 272 240 272 240 261 263 c 0,19,20
 251 285 251 285 251 307 c 1,21,-1
 67 307 l 1,22,23
 67 251 67 251 92 196 c 256,24,25
 118 141 118 141 163 96 c 0,26,27
 207 51 207 51 262 26 c 256,28,29
 317 0 317 0 374 0 c 256,30,31
 430 0 430 0 485 26 c 256,32,33
 540 52 540 52 586 96 c 0,34,35
 630 140 630 140 655 196 c 256,36,37
 681 251 681 251 681 307 c 2,38,-1
 681 717 l 2,39,40
 681 773 681 773 655 828 c 256,41,42
 629 883 629 883 586 929 c 0,43,44
 541 973 541 973 485 998 c 256,45,46
 430 1024 430 1024 374 1024 c 256,47,48
 318 1024 318 1024 262 998 c 256,49,50
 207 972 207 972 163 929 c 0,51,52
 118 884 118 884 92 828 c 256,53,54
 66 773 66 773 67 717 c 256,55,56
 67 661 67 661 92 605 c 256,57,58
 118 550 118 550 163 506 c 0,59,60
 207 461 207 461 262 435 c 256,61,62
 318 410 318 410 374 410 c 0,0,1
497 717 m 256,63,64
 497 694 497 694 486 673 c 0,65,66
 476 650 476 650 459 633 c 0,67,68
 441 615 441 615 419 604 c 0,69,70
 396 594 396 594 374 594 c 256,71,72
 351 594 351 594 330 604 c 0,73,74
 307 614 307 614 290 633 c 0,75,76
 272 650 272 650 261 673 c 0,77,78
 251 695 251 695 251 717 c 256,79,80
 251 740 251 740 261 762 c 0,81,82
 271 784 271 784 290 802 c 0,83,84
 307 819 307 819 330 829 c 0,85,86
 352 839 352 839 374 840 c 256,87,88
 397 840 397 840 419 829 c 0,89,90
 441 819 441 819 459 802 c 0,91,92
 476 784 476 784 486 762 c 0,93,94
 497 740 497 740 497 717 c 256,63,64
EndSplineSet
Validated: 41
EndChar

StartChar: A
Encoding: 65 65 11
Width: 716
Flags: W
LayerCount: 2
Fore
SplineSet
358 547 m 1,0,-1
 402 369 l 1,1,-1
 318 369 l 1,2,-1
 358 547 l 1,0,-1
446 184 m 1,3,-1
 492 0 l 1,4,-1
 666 0 l 1,5,-1
 451 1024 l 1,6,-1
 266 1024 l 1,7,-1
 51 0 l 1,8,-1
 236 0 l 1,9,-1
 276 184 l 1,10,-1
 446 184 l 1,3,-1
EndSplineSet
Validated: 9
EndChar

StartChar: B
Encoding: 66 66 12
Width: 768
Flags: W
LayerCount: 2
Fore
SplineSet
706 724 m 0,0,1
 706 782 706 782 682 837 c 0,2,3
 657 891 657 891 615 934 c 0,4,5
 572 976 572 976 519 1000 c 0,6,7
 466 1024 466 1024 410 1024 c 2,8,-1
 102 1024 l 1,9,-1
 102 0 l 1,10,-1
 410 0 l 2,11,12
 466 0 466 0 521 26 c 0,13,14
 575 52 575 52 621 96 c 0,15,16
 665 140 665 140 690 196 c 0,17,18
 716 250 716 250 716 306 c 0,19,20
 716 341 716 341 707 375 c 0,21,22
 698 408 698 408 683 435 c 0,23,24
 668 463 668 463 651 483 c 256,25,26
 635 503 635 503 618 515 c 1,27,28
 631 529 631 529 646 551 c 0,29,30
 660 571 660 571 675 599 c 0,31,32
 688 626 688 626 697 658 c 0,33,34
 706 690 706 690 706 724 c 0,0,1
410 430 m 2,35,36
 433 430 433 430 455 420 c 0,37,38
 477 409 477 409 495 391 c 0,39,40
 512 373 512 373 522 351 c 0,41,42
 532 328 532 328 532 307 c 0,43,44
 532 284 532 284 522 263 c 0,45,46
 512 240 512 240 495 223 c 0,47,48
 477 205 477 205 455 195 c 0,49,50
 432 185 432 185 410 184 c 2,51,-1
 287 184 l 1,52,-1
 287 430 l 1,53,-1
 410 430 l 2,35,36
410 614 m 2,54,-1
 287 614 l 1,55,-1
 287 840 l 1,56,-1
 410 840 l 2,57,58
 456 840 456 840 489 807 c 0,59,60
 522 773 522 773 522 727 c 256,61,62
 522 681 522 681 489 648 c 0,63,64
 456 614 456 614 410 614 c 2,54,-1
EndSplineSet
Validated: 9
EndChar

StartChar: C
Encoding: 67 67 13
Width: 747
Flags: W
LayerCount: 2
Fore
SplineSet
681 307 m 1,0,-1
 497 307 l 1,1,2
 497 284 497 284 486 263 c 0,3,4
 476 240 476 240 459 223 c 0,5,6
 441 205 441 205 419 195 c 0,7,8
 396 185 396 185 374 184 c 256,9,10
 351 184 351 184 330 195 c 0,11,12
 307 205 307 205 290 223 c 0,13,14
 272 240 272 240 261 263 c 0,15,16
 251 285 251 285 251 307 c 2,17,-1
 251 717 l 2,18,19
 251 740 251 740 261 762 c 0,20,21
 271 784 271 784 290 802 c 0,22,23
 307 819 307 819 330 829 c 0,24,25
 352 839 352 839 374 840 c 256,26,27
 397 840 397 840 419 829 c 0,28,29
 441 819 441 819 459 802 c 0,30,31
 476 784 476 784 486 762 c 0,32,33
 496 739 496 739 497 717 c 1,34,-1
 681 717 l 1,35,36
 681 773 681 773 655 828 c 256,37,38
 629 883 629 883 586 929 c 0,39,40
 541 973 541 973 485 998 c 256,41,42
 430 1024 430 1024 374 1024 c 256,43,44
 318 1024 318 1024 262 998 c 256,45,46
 207 972 207 972 163 929 c 0,47,48
 118 884 118 884 92 828 c 256,49,50
 66 773 66 773 67 717 c 2,51,-1
 67 307 l 2,52,53
 67 251 67 251 92 196 c 256,54,55
 118 141 118 141 163 96 c 0,56,57
 207 51 207 51 262 26 c 256,58,59
 317 0 317 0 374 0 c 256,60,61
 430 0 430 0 485 26 c 256,62,63
 540 52 540 52 586 96 c 0,64,65
 630 140 630 140 655 196 c 256,66,67
 681 251 681 251 681 307 c 1,0,-1
EndSplineSet
Validated: 41
EndChar

StartChar: D
Encoding: 68 68 14
Width: 783
Flags: W
LayerCount: 2
Fore
SplineSet
410 840 m 2,0,1
 433 840 433 840 455 829 c 0,2,3
 477 819 477 819 495 802 c 0,4,5
 512 784 512 784 522 762 c 0,6,7
 532 739 532 739 532 717 c 2,8,-1
 532 307 l 2,9,10
 532 284 532 284 522 263 c 0,11,12
 512 240 512 240 495 223 c 0,13,14
 477 205 477 205 455 195 c 0,15,16
 432 185 432 185 410 184 c 2,17,-1
 287 184 l 1,18,-1
 287 840 l 1,19,-1
 410 840 l 2,0,1
410 1024 m 2,20,-1
 102 1024 l 1,21,-1
 102 0 l 1,22,-1
 410 0 l 2,23,24
 466 0 466 0 521 26 c 256,25,26
 576 52 576 52 622 96 c 0,27,28
 666 140 666 140 691 196 c 256,29,30
 717 251 717 251 717 307 c 2,31,-1
 717 717 l 2,32,33
 717 773 717 773 691 828 c 256,34,35
 665 883 665 883 622 929 c 0,36,37
 577 973 577 973 521 998 c 256,38,39
 466 1024 466 1024 410 1024 c 2,20,-1
EndSplineSet
Validated: 9
EndChar

StartChar: E
Encoding: 69 69 15
Width: 768
Flags: W
LayerCount: 2
Fore
SplineSet
287 607 m 1,0,-1
 287 840 l 1,1,-1
 717 840 l 1,2,-1
 717 1024 l 1,3,-1
 102 1024 l 1,4,-1
 102 0 l 1,5,-1
 717 0 l 1,6,-1
 717 184 l 1,7,-1
 287 184 l 1,8,-1
 287 423 l 1,9,-1
 471 423 l 1,10,-1
 471 607 l 1,11,-1
 287 607 l 1,0,-1
EndSplineSet
Validated: 9
EndChar

StartChar: F
Encoding: 70 70 16
Width: 768
Flags: W
LayerCount: 2
Fore
SplineSet
287 0 m 1,0,-1
 287 423 l 1,1,-1
 471 423 l 1,2,-1
 471 607 l 1,3,-1
 287 607 l 1,4,-1
 287 840 l 1,5,-1
 717 840 l 1,6,-1
 717 1024 l 1,7,-1
 102 1024 l 1,8,-1
 102 0 l 1,9,-1
 287 0 l 1,0,-1
EndSplineSet
Validated: 9
EndChar

StartChar: G
Encoding: 71 71 17
Width: 747
Flags: W
LayerCount: 2
Fore
SplineSet
374 307 m 1,0,-1
 497 307 l 1,1,2
 497 284 497 284 486 263 c 0,3,4
 476 240 476 240 459 223 c 0,5,6
 441 205 441 205 419 195 c 0,7,8
 396 185 396 185 374 184 c 256,9,10
 351 184 351 184 330 195 c 0,11,12
 307 205 307 205 290 223 c 0,13,14
 272 240 272 240 261 263 c 0,15,16
 251 285 251 285 251 307 c 2,17,-1
 251 717 l 2,18,19
 251 740 251 740 261 762 c 0,20,21
 271 784 271 784 290 802 c 0,22,23
 307 819 307 819 330 829 c 0,24,25
 352 839 352 839 374 840 c 256,26,27
 397 840 397 840 419 829 c 0,28,29
 441 819 441 819 459 802 c 0,30,31
 476 784 476 784 486 762 c 0,32,33
 496 739 496 739 497 717 c 1,34,-1
 681 717 l 1,35,36
 681 773 681 773 655 828 c 256,37,38
 629 883 629 883 586 929 c 0,39,40
 541 973 541 973 485 998 c 256,41,42
 430 1024 430 1024 374 1024 c 256,43,44
 318 1024 318 1024 262 998 c 256,45,46
 207 972 207 972 163 929 c 0,47,48
 118 884 118 884 92 828 c 256,49,50
 66 773 66 773 67 717 c 2,51,-1
 67 307 l 2,52,53
 67 251 67 251 92 196 c 256,54,55
 118 141 118 141 163 96 c 0,56,57
 207 51 207 51 262 26 c 256,58,59
 317 0 317 0 374 0 c 256,60,61
 430 0 430 0 485 26 c 256,62,63
 540 52 540 52 586 96 c 0,64,65
 630 140 630 140 655 196 c 256,66,67
 681 251 681 251 681 307 c 2,68,-1
 681 492 l 1,69,-1
 374 492 l 1,70,-1
 374 307 l 1,0,-1
EndSplineSet
Validated: 41
EndChar

StartChar: H
Encoding: 72 72 18
Width: 819
Flags: W
LayerCount: 2
Fore
SplineSet
717 1024 m 1,0,-1
 532 1024 l 1,1,-1
 532 607 l 1,2,-1
 287 607 l 1,3,-1
 287 1024 l 1,4,-1
 102 1024 l 1,5,-1
 102 0 l 1,6,-1
 287 0 l 1,7,-1
 287 423 l 1,8,-1
 532 423 l 1,9,-1
 532 0 l 1,10,-1
 717 0 l 1,11,-1
 717 1024 l 1,0,-1
EndSplineSet
Validated: 9
EndChar

StartChar: I
Encoding: 73 73 19
Width: 389
Flags: W
LayerCount: 2
Fore
SplineSet
102 0 m 1,0,-1
 287 0 l 1,1,-1
 287 1024 l 1,2,-1
 102 1024 l 1,3,-1
 102 0 l 1,0,-1
EndSplineSet
Validated: 9
EndChar

StartChar: J
Encoding: 74 74 20
Width: 768
Flags: W
LayerCount: 2
Fore
SplineSet
236 307 m 1,0,-1
 51 307 l 1,1,2
 51 251 51 251 77 196 c 256,3,4
 103 141 103 141 147 96 c 0,5,6
 191 51 191 51 247 26 c 256,7,8
 302 0 302 0 358 0 c 256,9,10
 414 0 414 0 470 26 c 256,11,12
 525 52 525 52 570 96 c 0,13,14
 614 140 614 140 640 196 c 256,15,16
 666 251 666 251 666 307 c 2,17,-1
 666 1024 l 1,18,-1
 481 1024 l 1,19,-1
 481 307 l 2,20,21
 481 284 481 284 471 263 c 0,22,23
 461 240 461 240 443 223 c 0,24,25
 425 205 425 205 403 195 c 0,26,27
 380 185 380 185 358 184 c 256,28,29
 335 184 335 184 314 195 c 0,30,31
 291 205 291 205 274 223 c 0,32,33
 256 240 256 240 246 263 c 0,34,35
 236 284 236 284 236 307 c 1,0,-1
EndSplineSet
Validated: 9
EndChar

StartChar: K
Encoding: 75 75 21
Width: 768
Flags: W
LayerCount: 2
Fore
SplineSet
287 0 m 1,0,-1
 287 317 l 1,1,-1
 522 0 l 1,2,-1
 717 0 l 1,3,-1
 379 512 l 1,4,-1
 717 1024 l 1,5,-1
 522 1024 l 1,6,-1
 287 707 l 1,7,-1
 287 1024 l 1,8,-1
 102 1024 l 1,9,-1
 102 0 l 1,10,-1
 287 0 l 1,0,-1
EndSplineSet
Validated: 9
EndChar

StartChar: L
Encoding: 76 76 22
Width: 752
Flags: W
LayerCount: 2
Fore
SplineSet
717 184 m 1,0,-1
 287 184 l 1,1,-1
 287 1024 l 1,2,-1
 102 1024 l 1,3,-1
 102 0 l 1,4,-1
 717 0 l 1,5,-1
 717 184 l 1,0,-1
EndSplineSet
Validated: 9
EndChar

StartChar: M
Encoding: 77 77 23
Width: 1024
Flags: W
LayerCount: 2
Fore
SplineSet
563 0 m 1,0,-1
 736 440 l 1,1,-1
 737 0 l 1,2,-1
 922 0 l 1,3,-1
 922 1024 l 1,4,-1
 737 1024 l 1,5,-1
 512 338 l 1,6,-1
 287 1024 l 1,7,-1
 102 1024 l 1,8,-1
 102 0 l 1,9,-1
 287 0 l 1,10,-1
 287 440 l 1,11,-1
 461 0 l 1,12,-1
 563 0 l 1,0,-1
EndSplineSet
Validated: 9
EndChar

StartChar: N
Encoding: 78 78 24
Width: 819
Flags: W
LayerCount: 2
Fore
SplineSet
287 586 m 1,0,-1
 532 0 l 1,1,-1
 717 0 l 1,2,-1
 717 1024 l 1,3,-1
 532 1024 l 1,4,-1
 532 438 l 1,5,-1
 287 1024 l 1,6,-1
 102 1024 l 1,7,-1
 102 0 l 1,8,-1
 287 0 l 1,9,-1
 287 586 l 1,0,-1
EndSplineSet
Validated: 9
EndChar

StartChar: O
Encoding: 79 79 25
Width: 747
Flags: W
LayerCount: 2
Fore
SplineSet
681 307 m 2,0,-1
 681 717 l 2,1,2
 681 773 681 773 655 828 c 256,3,4
 629 883 629 883 586 929 c 0,5,6
 541 973 541 973 485 998 c 256,7,8
 430 1024 430 1024 374 1024 c 256,9,10
 318 1024 318 1024 262 998 c 256,11,12
 207 972 207 972 163 929 c 0,13,14
 118 884 118 884 92 828 c 256,15,16
 66 773 66 773 67 717 c 2,17,-1
 67 307 l 2,18,19
 67 251 67 251 92 196 c 256,20,21
 118 141 118 141 163 96 c 0,22,23
 207 51 207 51 262 26 c 256,24,25
 317 0 317 0 374 0 c 256,26,27
 430 0 430 0 485 26 c 256,28,29
 540 52 540 52 586 96 c 0,30,31
 630 140 630 140 655 196 c 256,32,33
 681 251 681 251 681 307 c 2,0,-1
497 307 m 2,34,35
 497 284 497 284 486 263 c 0,36,37
 476 240 476 240 459 223 c 0,38,39
 441 205 441 205 419 195 c 0,40,41
 396 185 396 185 374 184 c 256,42,43
 351 184 351 184 330 195 c 0,44,45
 307 205 307 205 290 223 c 0,46,47
 272 240 272 240 261 263 c 0,48,49
 251 285 251 285 251 307 c 2,50,-1
 251 717 l 2,51,52
 251 740 251 740 261 762 c 0,53,54
 271 784 271 784 290 802 c 0,55,56
 307 819 307 819 330 829 c 0,57,58
 352 839 352 839 374 840 c 256,59,60
 397 840 397 840 419 829 c 0,61,62
 441 819 441 819 459 802 c 0,63,64
 476 784 476 784 486 762 c 0,65,66
 496 739 496 739 497 717 c 2,67,-1
 497 307 l 2,34,35
EndSplineSet
Validated: 41
EndChar

StartChar: P
Encoding: 80 80 26
Width: 768
Flags: W
LayerCount: 2
Fore
SplineSet
287 594 m 1,0,-1
 287 840 l 1,1,-1
 410 840 l 2,2,3
 433 840 433 840 455 829 c 0,4,5
 477 819 477 819 495 802 c 0,6,7
 512 784 512 784 522 762 c 0,8,9
 532 739 532 739 532 717 c 256,10,11
 532 694 532 694 522 673 c 0,12,13
 512 650 512 650 495 633 c 0,14,15
 477 615 477 615 455 604 c 0,16,17
 432 594 432 594 410 594 c 2,18,-1
 287 594 l 1,0,-1
287 410 m 1,19,-1
 410 410 l 2,20,21
 466 410 466 410 521 435 c 256,22,23
 576 461 576 461 622 506 c 0,24,25
 666 550 666 550 691 605 c 256,26,27
 717 660 717 660 717 717 c 256,28,29
 717 773 717 773 691 828 c 256,30,31
 665 883 665 883 622 929 c 0,32,33
 577 973 577 973 521 998 c 256,34,35
 466 1024 466 1024 410 1024 c 2,36,-1
 102 1024 l 1,37,-1
 102 0 l 1,38,-1
 287 0 l 1,39,-1
 287 410 l 1,19,-1
EndSplineSet
Validated: 9
EndChar

StartChar: Q
Encoding: 81 81 27
Width: 747
Flags: W
LayerCount: 2
Fore
SplineSet
374 184 m 256,0,1
 351 184 351 184 330 195 c 0,2,3
 307 205 307 205 290 223 c 0,4,5
 272 240 272 240 261 263 c 0,6,7
 251 285 251 285 251 307 c 2,8,-1
 251 717 l 2,9,10
 251 740 251 740 261 762 c 0,11,12
 271 784 271 784 290 802 c 0,13,14
 307 819 307 819 330 829 c 0,15,16
 352 839 352 839 374 840 c 256,17,18
 397 840 397 840 419 829 c 0,19,20
 441 819 441 819 459 802 c 0,21,22
 476 784 476 784 486 762 c 0,23,24
 496 739 496 739 497 717 c 2,25,-1
 497 307 l 2,26,27
 497 284 497 284 486 263 c 0,28,29
 476 240 476 240 459 223 c 0,30,31
 441 205 441 205 419 195 c 0,32,33
 397 184 397 184 374 184 c 256,0,1
678 82 m 1,34,35
 649 82 649 82 630 86 c 0,36,37
 610 90 610 90 592 100 c 1,38,39
 598 107 598 107 610 122 c 0,40,41
 650 167 650 167 663 194 c 0,42,43
 672 216 672 216 677 242 c 0,44,45
 681 269 681 269 681 307 c 2,46,-1
 681 717 l 2,47,48
 681 773 681 773 655 828 c 256,49,50
 629 883 629 883 586 929 c 0,51,52
 541 973 541 973 485 998 c 256,53,54
 430 1024 430 1024 374 1024 c 256,55,56
 318 1024 318 1024 262 998 c 256,57,58
 207 972 207 972 163 929 c 0,59,60
 118 884 118 884 92 828 c 256,61,62
 66 773 66 773 67 717 c 2,63,-1
 67 307 l 2,64,65
 68 257 68 257 75 219 c 256,66,67
 82 181 82 181 92 159 c 256,68,69
 102 136 102 136 114 123 c 0,70,71
 125 109 125 109 138 96 c 0,72,73
 140 94 140 94 142 92 c 1,74,75
 114 68 114 68 96 46 c 0,76,77
 77 24 77 24 61 0 c 1,78,-1
 225 -92 l 1,79,80
 255 -56 255 -56 297 -29 c 0,81,82
 338 0 338 0 389 0 c 0,83,84
 435 0 435 0 481 -27 c 1,85,86
 493 -39 493 -39 517 -52 c 256,87,88
 541 -65 541 -65 568 -78 c 0,89,90
 596 -89 596 -89 626 -96 c 0,91,92
 655 -102 655 -102 678 -102 c 1,93,-1
 678 82 l 1,34,35
EndSplineSet
Validated: 41
EndChar

StartChar: R
Encoding: 82 82 28
Width: 783
Flags: W
LayerCount: 2
Fore
SplineSet
717 718 m 0,0,1
 717 774 717 774 691 829 c 0,2,3
 665 883 665 883 622 929 c 0,4,5
 577 973 577 973 521 998 c 256,6,7
 466 1024 466 1024 410 1024 c 2,8,-1
 102 1024 l 1,9,-1
 102 0 l 1,10,-1
 287 0 l 1,11,-1
 287 410 l 1,12,-1
 410 410 l 2,13,14
 433 410 433 410 455 399 c 0,15,16
 477 389 477 389 495 372 c 0,17,18
 512 354 512 354 522 332 c 0,19,20
 532 309 532 309 532 287 c 2,21,-1
 532 0 l 1,22,-1
 717 0 l 1,23,-1
 717 287 l 2,24,25
 717 340 717 340 705 380 c 0,26,27
 692 420 692 420 674 445 c 0,28,29
 656 471 656 471 641 483 c 0,30,31
 626 494 626 494 615 502 c 1,32,-1
 617 504 l 2,33,34
 629 516 629 516 644 532 c 256,35,36
 658 548 658 548 676 577 c 0,37,38
 692 605 692 605 705 641 c 0,39,40
 717 677 717 677 717 718 c 0,0,1
410 594 m 2,41,-1
 287 594 l 1,42,-1
 287 840 l 1,43,-1
 410 840 l 2,44,45
 433 840 433 840 455 829 c 0,46,47
 477 819 477 819 495 802 c 0,48,49
 512 784 512 784 522 762 c 0,50,51
 532 739 532 739 532 717 c 256,52,53
 532 694 532 694 522 673 c 0,54,55
 512 650 512 650 495 633 c 0,56,57
 477 615 477 615 455 604 c 0,58,59
 433 594 433 594 410 594 c 2,41,-1
EndSplineSet
Validated: 9
EndChar

StartChar: S
Encoding: 83 83 29
Width: 747
Flags: W
LayerCount: 2
Fore
SplineSet
671 727 m 1,0,1
 671 783 671 783 647 838 c 0,2,3
 622 891 622 891 581 934 c 0,4,5
 538 976 538 976 484 1000 c 0,6,7
 430 1024 430 1024 374 1024 c 256,8,9
 318 1024 318 1024 264 1000 c 0,10,11
 210 975 210 975 168 934 c 0,12,13
 126 891 126 891 101 838 c 0,14,15
 76 784 76 784 77 727 c 256,16,17
 77 671 77 671 101 617 c 0,18,19
 126 563 126 563 168 521 c 256,20,21
 210 479 210 479 264 455 c 0,22,23
 317 430 317 430 374 430 c 0,24,25
 397 430 397 430 419 420 c 0,26,27
 441 410 441 410 459 392 c 0,28,29
 476 374 476 374 486 352 c 0,30,31
 496 329 496 329 497 307 c 256,32,33
 497 284 497 284 486 263 c 0,34,35
 476 240 476 240 459 223 c 0,36,37
 441 205 441 205 419 195 c 0,38,39
 396 185 396 185 374 184 c 256,40,41
 351 184 351 184 330 195 c 0,42,43
 307 205 307 205 290 223 c 0,44,45
 272 240 272 240 261 263 c 0,46,47
 251 285 251 285 251 307 c 1,48,-1
 67 307 l 1,49,50
 67 251 67 251 92 196 c 256,51,52
 118 141 118 141 163 96 c 0,53,54
 207 51 207 51 262 26 c 256,55,56
 317 0 317 0 374 0 c 256,57,58
 430 0 430 0 485 26 c 256,59,60
 540 52 540 52 586 96 c 0,61,62
 630 140 630 140 655 196 c 256,63,64
 681 251 681 251 681 307 c 256,65,66
 681 363 681 363 655 419 c 256,67,68
 629 474 629 474 586 519 c 0,69,70
 541 563 541 563 485 589 c 256,71,72
 430 615 430 615 374 614 c 0,73,74
 328 614 328 614 295 648 c 0,75,76
 261 681 261 681 261 727 c 256,77,78
 261 773 261 773 295 807 c 0,79,80
 328 840 328 840 374 840 c 256,81,82
 420 840 420 840 454 807 c 0,83,84
 487 773 487 773 486 727 c 1,85,-1
 671 727 l 1,0,1
EndSplineSet
Validated: 41
EndChar

StartChar: T
Encoding: 84 84 30
Width: 686
Flags: W
LayerCount: 2
Fore
SplineSet
435 840 m 1,0,-1
 650 840 l 1,1,-1
 650 1024 l 1,2,-1
 36 1024 l 1,3,-1
 36 840 l 1,4,-1
 251 840 l 1,5,-1
 251 0 l 1,6,-1
 435 0 l 1,7,-1
 435 840 l 1,0,-1
EndSplineSet
Validated: 9
EndChar

StartChar: U
Encoding: 85 85 31
Width: 819
Flags: W
LayerCount: 2
Fore
SplineSet
717 1024 m 1,0,-1
 532 1024 l 1,1,-1
 532 307 l 2,2,3
 532 284 532 284 522 263 c 0,4,5
 512 240 512 240 495 223 c 0,6,7
 477 205 477 205 455 195 c 0,8,9
 432 185 432 185 410 184 c 256,10,11
 387 184 387 184 366 195 c 0,12,13
 343 205 343 205 326 223 c 0,14,15
 308 240 308 240 297 263 c 0,16,17
 287 285 287 285 287 307 c 2,18,-1
 287 1024 l 1,19,-1
 102 1024 l 1,20,-1
 102 307 l 2,21,22
 102 251 102 251 128 196 c 256,23,24
 154 141 154 141 199 96 c 0,25,26
 243 51 243 51 298 26 c 256,27,28
 353 0 353 0 410 0 c 256,29,30
 466 0 466 0 521 26 c 256,31,32
 576 52 576 52 622 96 c 0,33,34
 666 140 666 140 691 196 c 256,35,36
 717 251 717 251 717 307 c 2,37,-1
 717 1024 l 1,0,-1
EndSplineSet
Validated: 9
EndChar

StartChar: V
Encoding: 86 86 32
Width: 716
Flags: W
LayerCount: 2
Fore
SplineSet
358 477 m 1,0,-1
 236 1024 l 1,1,-1
 51 1024 l 1,2,-1
 266 0 l 1,3,-1
 451 0 l 1,4,-1
 666 1024 l 1,5,-1
 492 1024 l 1,6,-1
 358 477 l 1,0,-1
EndSplineSet
Validated: 9
EndChar

StartChar: W
Encoding: 87 87 33
Width: 921
Flags: W
LayerCount: 2
Fore
SplineSet
492 1024 m 1,0,-1
 358 477 l 1,1,-1
 236 1024 l 1,2,-1
 51 1024 l 1,3,-1
 266 0 l 1,4,-1
 451 0 l 1,5,-1
 492 191 l 1,6,-1
 532 0 l 1,7,-1
 717 0 l 1,8,-1
 932 1024 l 1,9,-1
 748 1024 l 1,10,-1
 625 477 l 1,11,-1
 492 1024 l 1,0,-1
EndSplineSet
Validated: 9
EndChar

StartChar: X
Encoding: 88 88 34
Width: 716
Flags: W
LayerCount: 2
Fore
SplineSet
266 512 m 1,0,-1
 51 0 l 1,1,-1
 236 0 l 1,2,-1
 358 293 l 1,3,-1
 481 0 l 1,4,-1
 666 0 l 1,5,-1
 451 512 l 1,6,-1
 666 1024 l 1,7,-1
 481 1024 l 1,8,-1
 358 731 l 1,9,-1
 236 1024 l 1,10,-1
 51 1024 l 1,11,-1
 266 512 l 1,0,-1
EndSplineSet
Validated: 9
EndChar

StartChar: Y
Encoding: 89 89 35
Width: 716
Flags: W
LayerCount: 2
Fore
SplineSet
358 731 m 1,0,-1
 236 1024 l 1,1,-1
 51 1024 l 1,2,-1
 266 512 l 1,3,-1
 266 0 l 1,4,-1
 451 0 l 1,5,-1
 451 512 l 1,6,-1
 666 1024 l 1,7,-1
 481 1024 l 1,8,-1
 358 731 l 1,0,-1
EndSplineSet
Validated: 9
EndChar

StartChar: Z
Encoding: 90 90 36
Width: 716
Flags: W
LayerCount: 2
Fore
SplineSet
51 184 m 1,0,-1
 51 0 l 1,1,-1
 666 0 l 1,2,-1
 666 184 l 1,3,-1
 261 184 l 1,4,-1
 666 840 l 1,5,-1
 666 1024 l 1,6,-1
 51 1024 l 1,7,-1
 51 840 l 1,8,-1
 456 840 l 1,9,-1
 51 184 l 1,0,-1
EndSplineSet
Validated: 9
EndChar

StartChar: colon
Encoding: 58 58 37
Width: 491
Flags: W
LayerCount: 2
Fore
SplineSet
287 553 m 1,0,-1
 287 737 l 1,1,-1
 102 737 l 1,2,-1
 102 553 l 1,3,-1
 287 553 l 1,0,-1
287 0 m 1,4,-1
 287 184 l 1,5,-1
 102 184 l 1,6,-1
 102 0 l 1,7,-1
 287 0 l 1,4,-1
EndSplineSet
Validated: 9
EndChar

StartChar: semicolon
Encoding: 59 59 38
Width: 936
Flags: W
LayerCount: 2
Fore
SplineSet
118 -205 m 1,0,-1
 323 0 l 1,1,-1
 138 0 l 1,2,-1
 36 -205 l 1,3,-1
 118 -205 l 1,0,-1
323 553 m 1,4,-1
 323 737 l 1,5,-1
 138 737 l 1,6,-1
 138 553 l 1,7,-1
 323 553 l 1,4,-1
EndSplineSet
Validated: 9
EndChar

StartChar: question
Encoding: 63 63 39
Width: 2201
Flags: W
LayerCount: 2
Fore
SplineSet
2087 584 m 2,0,1
 2130 638 2130 638 2156 691 c 0,2,3
 2181 743 2181 743 2180 787 c 0,4,5
 2180 848 2180 848 2127 885 c 256,6,7
 2074 921 2074 921 1958 922 c 2,8,-1
 1485 922 l 1,9,-1
 1434 717 l 1,10,-1
 1845 717 l 2,11,12
 1938 717 1938 717 1938 683 c 0,13,14
 1938 656 1938 656 1884 602 c 1,15,-1
 1700 394 l 2,16,17
 1677 372 1677 372 1670 362 c 0,18,19
 1662 352 1662 352 1662 342 c 0,20,21
 1662 330 1662 330 1673 313 c 256,22,23
 1684 297 1684 297 1715 256 c 2,24,-1
 1843 102 l 1,25,26
 1887 57 1887 57 1907 40 c 0,27,28
 1926 22 1926 22 1944 13 c 0,29,30
 1961 4 1961 4 1981 2 c 0,31,32
 2000 0 2000 0 2048 0 c 2,33,-1
 2150 1 l 1,34,-1
 2202 205 l 1,35,-1
 2114 205 l 2,36,37
 2065 205 2065 205 2054 207 c 0,38,39
 2047 209 2047 209 2043 212 c 0,40,41
 2038 215 2038 215 2029 223 c 2,42,-1
 1946 307 l 2,43,44
 1919 334 1919 334 1919 344 c 0,45,46
 1919 353 1919 353 1946 384 c 2,47,-1
 2087 584 l 2,0,1
1459 614 m 1,48,-1
 1306 0 l 1,49,-1
 1562 0 l 1,50,-1
 1715 614 l 1,51,-1
 1459 614 l 1,48,-1
563 0 m 1,52,-1
 1203 0 l 1,53,-1
 1254 205 l 1,54,-1
 870 205 l 1,55,-1
 922 384 l 1,56,-1
 1126 384 l 1,57,-1
 1178 589 l 1,58,-1
 973 589 l 1,59,-1
 1024 717 l 1,60,-1
 1331 717 l 1,61,-1
 1382 922 l 1,62,-1
 819 922 l 1,63,-1
 563 0 l 1,52,-1
717 717 m 1,64,-1
 768 922 l 1,65,-1
 51 922 l 1,66,-1
 0 717 l 1,67,-1
 230 717 l 1,68,-1
 51 0 l 1,69,-1
 307 0 l 1,70,-1
 486 717 l 1,71,-1
 717 717 l 1,64,-1
EndSplineSet
Validated: 41
EndChar

StartChar: underscore
Encoding: 95 95 40
Width: 665
Flags: W
LayerCount: 2
Fore
SplineSet
563 0 m 1,0,-1
 563 184 l 1,1,-1
 102 184 l 1,2,-1
 102 0 l 1,3,-1
 563 0 l 1,0,-1
EndSplineSet
Validated: 9
EndChar

StartChar: a
Encoding: 97 97 41
Width: 450
Flags: W
LayerCount: 2
Fore
SplineSet
282 282 m 2,0,-1
 282 169 l 2,1,2
 282 147 282 147 265 130 c 0,3,4
 248 113 248 113 225 113 c 256,5,6
 202 113 202 113 186 130 c 0,7,8
 169 147 169 147 169 169 c 256,9,10
 169 191 169 191 186 208 c 0,11,12
 202 225 202 225 225 225 c 256,13,14
 248 225 248 225 265 243 c 0,15,16
 282 260 282 260 282 282 c 2,0,-1
225 338 m 0,17,18
 56 338 56 338 56 169 c 256,19,20
 56 0 56 0 225 0 c 2,21,-1
 394 0 l 1,22,-1
 394 394 l 2,23,24
 394 563 394 563 225 563 c 256,25,26
 56 563 56 563 56 394 c 1,27,-1
 169 394 l 1,28,29
 169 416 169 416 186 433 c 0,30,31
 202 450 202 450 225 451 c 256,32,33
 248 451 248 451 265 434 c 0,34,35
 281 417 281 417 282 394 c 0,36,37
 282 372 282 372 265 355 c 0,38,39
 248 338 248 338 225 338 c 0,17,18
EndSplineSet
Validated: 9
EndChar

StartChar: b
Encoding: 98 98 42
Width: 465
Flags: W
LayerCount: 2
Fore
SplineSet
241 0 m 2,0,1
 410 0 410 0 410 169 c 2,2,-1
 410 394 l 2,3,4
 410 563 410 563 241 563 c 0,5,6
 218 563 218 563 207 562 c 0,7,8
 195 560 195 560 184 557 c 1,9,-1
 184 819 l 1,10,-1
 72 819 l 1,11,-1
 72 0 l 1,12,-1
 241 0 l 2,0,1
241 113 m 256,13,14
 218 113 218 113 202 130 c 0,15,16
 185 147 185 147 184 169 c 2,17,-1
 184 394 l 2,18,19
 184 416 184 416 202 433 c 0,20,21
 218 450 218 450 241 451 c 256,22,23
 264 451 264 451 281 434 c 0,24,25
 297 417 297 417 297 394 c 2,26,-1
 297 169 l 2,27,28
 297 147 297 147 281 130 c 0,29,30
 264 113 264 113 241 113 c 256,13,14
EndSplineSet
Validated: 9
EndChar

StartChar: c
Encoding: 99 99 43
Width: 435
Flags: W
LayerCount: 2
Fore
SplineSet
394 169 m 1,0,-1
 282 169 l 1,1,2
 282 147 282 147 265 130 c 0,3,4
 248 113 248 113 225 113 c 256,5,6
 202 113 202 113 186 130 c 0,7,8
 169 147 169 147 169 169 c 2,9,-1
 169 394 l 2,10,11
 169 416 169 416 186 433 c 0,12,13
 202 450 202 450 225 451 c 256,14,15
 248 451 248 451 265 434 c 0,16,17
 281 417 281 417 282 394 c 1,18,-1
 394 394 l 1,19,20
 394 563 394 563 225 563 c 256,21,22
 56 563 56 563 56 394 c 2,23,-1
 56 169 l 2,24,25
 56 0 56 0 225 0 c 256,26,27
 394 0 394 0 394 169 c 1,0,-1
EndSplineSet
Validated: 9
EndChar

StartChar: d
Encoding: 100 100 44
Width: 465
Flags: W
LayerCount: 2
Fore
SplineSet
282 819 m 1,0,-1
 282 557 l 1,1,2
 272 560 272 560 260 562 c 0,3,4
 248 563 248 563 225 563 c 0,5,6
 56 563 56 563 56 394 c 2,7,-1
 56 169 l 2,8,9
 56 0 56 0 225 0 c 0,10,11
 248 0 248 0 260 2 c 0,12,13
 271 3 271 3 282 6 c 1,14,-1
 282 0 l 1,15,-1
 394 0 l 1,16,-1
 394 819 l 1,17,-1
 282 819 l 1,0,-1
225 113 m 256,18,19
 202 113 202 113 186 130 c 0,20,21
 169 147 169 147 169 169 c 2,22,-1
 169 394 l 2,23,24
 169 416 169 416 186 433 c 0,25,26
 202 450 202 450 225 451 c 256,27,28
 248 451 248 451 265 434 c 0,29,30
 281 417 281 417 282 394 c 2,31,-1
 282 169 l 2,32,33
 282 147 282 147 265 130 c 0,34,35
 248 113 248 113 225 113 c 256,18,19
EndSplineSet
Validated: 9
EndChar

StartChar: e
Encoding: 101 101 45
Width: 450
Flags: W
LayerCount: 2
Fore
SplineSet
282 338 m 1,0,-1
 169 338 l 1,1,-1
 169 394 l 2,2,3
 169 416 169 416 186 433 c 0,4,5
 202 450 202 450 225 451 c 256,6,7
 248 451 248 451 265 434 c 0,8,9
 281 417 281 417 282 394 c 2,10,-1
 282 338 l 1,0,-1
394 225 m 1,11,-1
 394 394 l 2,12,13
 394 563 394 563 225 563 c 256,14,15
 56 563 56 563 56 394 c 2,16,-1
 56 169 l 2,17,18
 56 0 56 0 225 0 c 256,19,20
 394 0 394 0 394 169 c 1,21,-1
 282 169 l 1,22,23
 282 147 282 147 265 130 c 0,24,25
 248 113 248 113 225 113 c 256,26,27
 202 113 202 113 186 130 c 0,28,29
 169 147 169 147 169 169 c 2,30,-1
 169 225 l 1,31,-1
 394 225 l 1,11,-1
EndSplineSet
Validated: 9
EndChar

StartChar: f
Encoding: 102 102 46
Width: 481
Flags: W
LayerCount: 2
Fore
SplineSet
215 0 m 1,0,-1
 215 451 l 1,1,-1
 261 451 l 1,2,-1
 261 563 l 1,3,-1
 215 563 l 1,4,-1
 215 650 l 2,5,6
 215 672 215 672 232 689 c 0,7,8
 248 706 248 706 271 707 c 256,9,10
 294 707 294 707 311 690 c 0,11,12
 327 673 327 673 328 650 c 1,13,-1
 440 650 l 1,14,15
 440 819 440 819 271 819 c 256,16,17
 102 819 102 819 102 650 c 2,18,-1
 102 563 l 1,19,-1
 56 563 l 1,20,-1
 56 451 l 1,21,-1
 102 451 l 1,22,-1
 102 0 l 1,23,-1
 215 0 l 1,0,-1
EndSplineSet
Validated: 9
EndChar

StartChar: g
Encoding: 103 103 47
Width: 465
Flags: W
LayerCount: 2
Fore
SplineSet
241 451 m 256,0,1
 264 451 264 451 281 434 c 0,2,3
 297 417 297 417 297 394 c 2,4,-1
 297 169 l 2,5,6
 297 147 297 147 281 130 c 0,7,8
 264 113 264 113 241 113 c 256,9,10
 218 113 218 113 202 130 c 0,11,12
 185 147 185 147 184 169 c 2,13,-1
 184 394 l 2,14,15
 184 416 184 416 202 433 c 0,16,17
 218 451 218 451 241 451 c 256,0,1
297 -87 m 2,18,19
 297 -110 297 -110 281 -127 c 0,20,21
 264 -143 264 -143 241 -143 c 256,22,23
 218 -143 218 -143 202 -126 c 0,24,25
 185 -109 185 -109 184 -87 c 1,26,-1
 72 -87 l 1,27,28
 72 -256 72 -256 241 -256 c 256,29,30
 410 -256 410 -256 410 -87 c 2,31,-1
 410 563 l 1,32,-1
 297 563 l 1,33,-1
 297 557 l 1,34,35
 287 560 287 560 275 562 c 0,36,37
 263 563 263 563 241 563 c 0,38,39
 72 563 72 563 72 394 c 2,40,-1
 72 169 l 2,41,42
 72 0 72 0 241 0 c 0,43,44
 264 0 264 0 275 2 c 0,45,46
 286 3 286 3 297 6 c 1,47,-1
 297 -87 l 2,18,19
EndSplineSet
Validated: 9
EndChar

StartChar: h
Encoding: 104 104 48
Width: 450
Flags: W
LayerCount: 2
Fore
SplineSet
241 563 m 0,0,1
 218 563 218 563 207 562 c 0,2,3
 195 560 195 560 184 557 c 1,4,-1
 184 819 l 1,5,-1
 72 819 l 1,6,-1
 72 0 l 1,7,-1
 184 0 l 1,8,-1
 184 394 l 2,9,10
 184 416 184 416 202 433 c 0,11,12
 218 450 218 450 241 451 c 256,13,14
 264 451 264 451 281 434 c 0,15,16
 297 417 297 417 297 394 c 2,17,-1
 297 0 l 1,18,-1
 410 0 l 1,19,-1
 410 394 l 2,20,21
 410 563 410 563 241 563 c 0,0,1
EndSplineSet
Validated: 9
EndChar

StartChar: i
Encoding: 105 105 49
Width: 256
Flags: W
LayerCount: 2
Fore
SplineSet
72 0 m 1,0,-1
 184 0 l 1,1,-1
 184 563 l 1,2,-1
 72 563 l 1,3,-1
 72 0 l 1,0,-1
72 620 m 1,4,-1
 184 620 l 1,5,-1
 184 732 l 1,6,-1
 72 732 l 1,7,-1
 72 620 l 1,4,-1
EndSplineSet
Validated: 9
EndChar

StartChar: j
Encoding: 106 106 50
Width: 450
Flags: W
LayerCount: 2
Fore
SplineSet
266 707 m 1,0,-1
 379 707 l 1,1,-1
 379 819 l 1,2,-1
 266 819 l 1,3,-1
 266 707 l 1,0,-1
266 563 m 1,4,-1
 266 -87 l 2,5,6
 266 -110 266 -110 250 -127 c 0,7,8
 233 -143 233 -143 210 -143 c 256,9,10
 187 -143 187 -143 171 -126 c 0,11,12
 154 -109 154 -109 154 -87 c 1,13,-1
 41 -87 l 1,14,15
 41 -256 41 -256 210 -256 c 256,16,17
 379 -256 379 -256 379 -87 c 2,18,-1
 379 563 l 1,19,-1
 266 563 l 1,4,-1
EndSplineSet
Validated: 9
EndChar

StartChar: k
Encoding: 107 107 51
Width: 394
Flags: W
LayerCount: 2
Fore
SplineSet
184 410 m 1,0,-1
 184 819 l 1,1,-1
 72 819 l 1,2,-1
 72 0 l 1,3,-1
 184 0 l 1,4,-1
 184 154 l 1,5,-1
 241 0 l 1,6,-1
 353 0 l 1,7,-1
 241 282 l 1,8,-1
 353 563 l 1,9,-1
 241 563 l 1,10,-1
 184 410 l 1,0,-1
EndSplineSet
Validated: 9
EndChar

StartChar: l
Encoding: 108 108 52
Width: 256
Flags: W
LayerCount: 2
Fore
SplineSet
72 0 m 1,0,-1
 184 0 l 1,1,-1
 184 819 l 1,2,-1
 72 819 l 1,3,-1
 72 0 l 1,0,-1
EndSplineSet
Validated: 9
EndChar

StartChar: m
Encoding: 109 109 53
Width: 691
Flags: W
LayerCount: 2
Fore
SplineSet
466 563 m 0,0,1
 426 563 426 563 399 555 c 0,2,3
 372 546 372 546 353 532 c 1,4,5
 337 545 337 545 310 555 c 0,6,7
 282 563 282 563 241 563 c 0,8,9
 218 563 218 563 207 562 c 0,10,11
 195 560 195 560 184 557 c 1,12,-1
 184 563 l 1,13,-1
 72 563 l 1,14,-1
 72 0 l 1,15,-1
 184 0 l 1,16,-1
 184 394 l 2,17,18
 184 416 184 416 202 433 c 0,19,20
 218 450 218 450 241 451 c 256,21,22
 264 451 264 451 281 434 c 0,23,24
 297 417 297 417 297 394 c 2,25,-1
 297 0 l 1,26,-1
 410 0 l 1,27,-1
 410 394 l 2,28,29
 410 416 410 416 427 433 c 0,30,31
 443 450 443 450 466 451 c 256,32,33
 489 451 489 451 506 434 c 0,34,35
 522 417 522 417 522 394 c 2,36,-1
 522 0 l 1,37,-1
 635 0 l 1,38,-1
 635 394 l 2,39,40
 635 563 635 563 466 563 c 0,0,1
EndSplineSet
Validated: 9
EndChar

StartChar: n
Encoding: 110 110 54
Width: 465
Flags: W
LayerCount: 2
Fore
SplineSet
241 563 m 0,0,1
 218 563 218 563 207 562 c 0,2,3
 195 560 195 560 184 557 c 1,4,-1
 184 563 l 1,5,-1
 72 563 l 1,6,-1
 72 0 l 1,7,-1
 184 0 l 1,8,-1
 184 394 l 2,9,10
 184 416 184 416 202 433 c 0,11,12
 218 450 218 450 241 451 c 256,13,14
 264 451 264 451 281 434 c 0,15,16
 297 417 297 417 297 394 c 2,17,-1
 297 0 l 1,18,-1
 410 0 l 1,19,-1
 410 394 l 2,20,21
 410 563 410 563 241 563 c 0,0,1
EndSplineSet
Validated: 9
EndChar

StartChar: o
Encoding: 111 111 55
Width: 450
Flags: W
LayerCount: 2
Fore
SplineSet
394 394 m 2,0,1
 394 563 394 563 225 563 c 256,2,3
 56 563 56 563 56 394 c 2,4,-1
 56 169 l 2,5,6
 56 0 56 0 225 0 c 256,7,8
 394 0 394 0 394 169 c 2,9,-1
 394 394 l 2,0,1
282 169 m 2,10,11
 282 147 282 147 265 130 c 0,12,13
 248 113 248 113 225 113 c 256,14,15
 202 113 202 113 186 130 c 0,16,17
 169 147 169 147 169 169 c 2,18,-1
 169 394 l 2,19,20
 169 416 169 416 186 433 c 0,21,22
 202 450 202 450 225 451 c 256,23,24
 248 451 248 451 265 434 c 0,25,26
 281 417 281 417 282 394 c 2,27,-1
 282 169 l 2,10,11
EndSplineSet
Validated: 9
EndChar

StartChar: p
Encoding: 112 112 56
Width: 465
Flags: W
LayerCount: 2
Fore
SplineSet
184 -256 m 1,0,-1
 184 6 l 1,1,2
 194 3 194 3 207 2 c 0,3,4
 218 0 218 0 241 0 c 0,5,6
 410 0 410 0 410 169 c 2,7,-1
 410 394 l 2,8,9
 410 563 410 563 241 563 c 0,10,11
 218 563 218 563 207 562 c 0,12,13
 195 560 195 560 184 557 c 1,14,-1
 184 563 l 1,15,-1
 72 563 l 1,16,-1
 72 -256 l 1,17,-1
 184 -256 l 1,0,-1
241 451 m 256,18,19
 264 451 264 451 281 434 c 0,20,21
 297 417 297 417 297 394 c 2,22,-1
 297 169 l 2,23,24
 297 147 297 147 281 130 c 0,25,26
 264 113 264 113 241 113 c 256,27,28
 218 113 218 113 202 130 c 0,29,30
 185 147 185 147 184 169 c 2,31,-1
 184 394 l 2,32,33
 184 416 184 416 202 433 c 0,34,35
 218 451 218 451 241 451 c 256,18,19
EndSplineSet
Validated: 9
EndChar

StartChar: q
Encoding: 113 113 57
Width: 465
Flags: W
LayerCount: 2
Fore
SplineSet
297 -256 m 1,0,-1
 410 -256 l 1,1,-1
 410 563 l 1,2,-1
 297 563 l 1,3,-1
 297 557 l 1,4,5
 287 560 287 560 275 562 c 0,6,7
 263 563 263 563 241 563 c 0,8,9
 72 563 72 563 72 394 c 2,10,-1
 72 169 l 2,11,12
 72 0 72 0 241 0 c 0,13,14
 264 0 264 0 275 2 c 0,15,16
 286 3 286 3 297 6 c 1,17,-1
 297 -256 l 1,0,-1
241 451 m 256,18,19
 264 451 264 451 281 434 c 0,20,21
 297 417 297 417 297 394 c 2,22,-1
 297 169 l 2,23,24
 297 147 297 147 281 130 c 0,25,26
 264 113 264 113 241 113 c 256,27,28
 218 113 218 113 202 130 c 0,29,30
 185 147 185 147 184 169 c 2,31,-1
 184 394 l 2,32,33
 184 416 184 416 202 433 c 0,34,35
 218 451 218 451 241 451 c 256,18,19
EndSplineSet
Validated: 9
EndChar

StartChar: r
Encoding: 114 114 58
Width: 450
Flags: W
LayerCount: 2
Fore
SplineSet
410 394 m 1,0,1
 410 563 410 563 241 563 c 0,2,3
 218 563 218 563 207 562 c 0,4,5
 195 560 195 560 184 557 c 1,6,-1
 184 563 l 1,7,-1
 72 563 l 1,8,-1
 72 0 l 1,9,-1
 184 0 l 1,10,-1
 184 394 l 2,11,12
 184 416 184 416 202 433 c 0,13,14
 218 450 218 450 241 451 c 256,15,16
 264 451 264 451 281 434 c 0,17,18
 297 417 297 417 297 394 c 1,19,-1
 410 394 l 1,0,1
EndSplineSet
Validated: 9
EndChar

StartChar: s
Encoding: 115 115 59
Width: 450
Flags: W
LayerCount: 2
Fore
SplineSet
394 394 m 1,0,1
 394 563 394 563 225 563 c 256,2,3
 56 563 56 563 56 394 c 256,4,5
 56 225 56 225 225 225 c 0,6,7
 248 225 248 225 265 209 c 0,8,9
 281 192 281 192 282 169 c 0,10,11
 282 147 282 147 265 130 c 0,12,13
 248 113 248 113 225 113 c 256,14,15
 202 113 202 113 186 130 c 0,16,17
 169 147 169 147 169 169 c 1,18,-1
 56 169 l 1,19,20
 56 0 56 0 225 0 c 256,21,22
 394 0 394 0 394 169 c 256,23,24
 394 338 394 338 225 338 c 0,25,26
 202 338 202 338 186 355 c 0,27,28
 169 372 169 372 169 394 c 256,29,30
 169 416 169 416 186 433 c 0,31,32
 202 450 202 450 225 451 c 256,33,34
 248 451 248 451 265 434 c 0,35,36
 281 417 281 417 282 394 c 1,37,-1
 394 394 l 1,0,1
EndSplineSet
Validated: 9
EndChar

StartChar: t
Encoding: 116 116 60
Width: 481
Flags: W
LayerCount: 2
Fore
SplineSet
271 0 m 0,0,1
 314 0 314 0 346 11 c 0,2,3
 377 21 377 21 399 43 c 1,4,-1
 311 130 l 1,5,6
 294 113 294 113 270 113 c 0,7,8
 248 113 248 113 232 130 c 0,9,10
 215 147 215 147 215 169 c 2,11,-1
 215 451 l 1,12,-1
 261 451 l 1,13,-1
 261 563 l 1,14,-1
 215 563 l 1,15,-1
 215 819 l 1,16,-1
 102 763 l 1,17,-1
 102 563 l 1,18,-1
 56 563 l 1,19,-1
 56 451 l 1,20,-1
 102 451 l 1,21,-1
 102 169 l 2,22,23
 102 0 102 0 271 0 c 0,0,1
EndSplineSet
Validated: 9
EndChar

StartChar: u
Encoding: 117 117 61
Width: 465
Flags: W
LayerCount: 2
Fore
SplineSet
225 0 m 0,0,1
 248 0 248 0 260 2 c 0,2,3
 271 3 271 3 282 6 c 1,4,-1
 282 0 l 1,5,-1
 394 0 l 1,6,-1
 394 563 l 1,7,-1
 282 563 l 1,8,-1
 282 169 l 2,9,10
 282 147 282 147 265 130 c 0,11,12
 248 113 248 113 225 113 c 256,13,14
 202 113 202 113 186 130 c 0,15,16
 169 147 169 147 169 169 c 2,17,-1
 169 563 l 1,18,-1
 56 563 l 1,19,-1
 56 169 l 2,20,21
 56 0 56 0 225 0 c 0,0,1
EndSplineSet
Validated: 9
EndChar

StartChar: v
Encoding: 118 118 62
Width: 419
Flags: W
LayerCount: 2
Fore
SplineSet
210 282 m 1,0,-1
 154 563 l 1,1,-1
 41 563 l 1,2,-1
 154 0 l 1,3,-1
 266 0 l 1,4,-1
 379 563 l 1,5,-1
 266 563 l 1,6,-1
 210 282 l 1,0,-1
EndSplineSet
Validated: 9
EndChar

StartChar: w
Encoding: 119 119 63
Width: 645
Flags: W
LayerCount: 2
Fore
SplineSet
323 282 m 1,0,-1
 379 0 l 1,1,-1
 492 0 l 1,2,-1
 604 563 l 1,3,-1
 492 563 l 1,4,-1
 435 282 l 1,5,-1
 379 563 l 1,6,-1
 266 563 l 1,7,-1
 210 282 l 1,8,-1
 154 563 l 1,9,-1
 41 563 l 1,10,-1
 154 0 l 1,11,-1
 266 0 l 1,12,-1
 323 282 l 1,0,-1
EndSplineSet
Validated: 9
EndChar

StartChar: x
Encoding: 120 120 64
Width: 419
Flags: W
LayerCount: 2
Fore
SplineSet
154 282 m 1,0,-1
 41 0 l 1,1,-1
 154 0 l 1,2,-1
 210 138 l 1,3,-1
 266 0 l 1,4,-1
 379 0 l 1,5,-1
 266 282 l 1,6,-1
 379 563 l 1,7,-1
 266 563 l 1,8,-1
 210 420 l 1,9,-1
 154 563 l 1,10,-1
 41 563 l 1,11,-1
 154 282 l 1,0,-1
EndSplineSet
Validated: 9
EndChar

StartChar: y
Encoding: 121 121 65
Width: 471
Flags: W
LayerCount: 2
Fore
SplineSet
87 -126 m 1,0,-1
 0 -214 l 1,1,2
 23 -233 23 -233 49 -245 c 256,3,4
 76 -256 76 -256 126 -256 c 0,5,6
 174 -256 174 -256 206 -244 c 0,7,8
 237 -232 237 -232 254 -214 c 256,9,10
 271 -197 271 -197 279 -181 c 0,11,12
 285 -165 285 -165 290 -146 c 2,13,-1
 291 -141 l 1,14,-1
 432 563 l 1,15,-1
 319 563 l 1,16,-1
 263 282 l 1,17,-1
 207 563 l 1,18,-1
 94 563 l 1,19,-1
 207 0 l 1,20,-1
 182 -95 l 2,21,22
 178 -113 178 -113 164 -129 c 0,23,24
 149 -143 149 -143 127 -143 c 0,25,26
 116 -143 116 -143 104 -138 c 256,27,28
 93 -133 93 -133 87 -126 c 1,0,-1
EndSplineSet
Validated: 9
EndChar

StartChar: z
Encoding: 122 122 66
Width: 419
Flags: W
LayerCount: 2
Fore
SplineSet
379 113 m 1,0,-1
 174 113 l 1,1,-1
 379 451 l 1,2,-1
 379 563 l 1,3,-1
 41 563 l 1,4,-1
 41 451 l 1,5,-1
 246 451 l 1,6,-1
 41 113 l 1,7,-1
 41 0 l 1,8,-1
 379 0 l 1,9,-1
 379 113 l 1,0,-1
EndSplineSet
Validated: 9
EndChar

StartChar: uni0091
Encoding: 145 145 67
Width: 220
Flags: W
LayerCount: 2
Fore
SplineSet
1 707 m 1,0,-1
 57 707 l 1,1,-1
 150 819 l 1,2,-1
 57 819 l 1,3,-1
 1 707 l 1,0,-1
EndSplineSet
Validated: 9
EndChar

StartChar: section
Encoding: 167 167 68
Width: 2099
Flags: W
LayerCount: 2
Fore
SplineSet
1317 973 m 2,0,1
 1278 973 1278 973 1248 944 c 256,2,3
 1218 915 1218 915 1202 869 c 2,4,-1
 915 0 l 1,5,-1
 1325 0 l 1,6,-1
 1389 205 l 1,7,-1
 1786 205 l 1,8,-1
 1893 512 l 1,9,-1
 1482 512 l 1,10,-1
 1511 614 l 1,11,-1
 1921 614 l 1,12,-1
 2049 973 l 1,13,-1
 1317 973 l 2,0,1
83 0 m 2,14,-1
 813 0 l 1,15,-1
 915 307 l 1,16,-1
 455 307 l 1,17,-1
 547 614 l 1,18,-1
 1008 614 l 1,19,-1
 1136 973 l 1,20,-1
 352 973 l 2,21,22
 313 973 313 973 284 944 c 256,23,24
 254 915 254 915 238 869 c 2,25,-1
 0 141 l 2,26,27
 -7 121 -7 121 -7 100 c 0,28,29
 -7 58 -7 58 17 30 c 0,30,31
 42 0 42 0 83 0 c 2,14,-1
EndSplineSet
Validated: 9
EndChar

StartChar: mu
Encoding: 181 181 69
Width: 2099
Flags: W
LayerCount: 2
Fore
SplineSet
2355 1178 m 1,0,-1
 1987 77 l 1,1,-1
 1979 57 l 2,2,3
 1948 -20 1948 -20 1927 -61 c 0,4,5
 1905 -102 1905 -102 1871 -136 c 0,6,7
 1836 -169 1836 -169 1781 -187 c 0,8,9
 1725 -204 1725 -204 1638 -205 c 2,10,-1
 -1 -205 l 1,11,-1
 -1 -256 l 1,12,-1
 1638 -256 l 2,13,14
 1741 -256 1741 -256 1810 -233 c 0,15,16
 1879 -209 1879 -209 1920 -170 c 0,17,18
 1961 -129 1961 -129 1985 -83 c 0,19,20
 2008 -36 2008 -36 2035 41 c 2,21,-1
 2048 77 l 1,22,-1
 2427 1229 l 1,23,-1
 -1 1229 l 1,24,-1
 -1 1178 l 1,25,-1
 2355 1178 l 1,0,-1
83 0 m 2,26,-1
 813 0 l 1,27,-1
 915 307 l 1,28,-1
 455 307 l 1,29,-1
 547 614 l 1,30,-1
 1008 614 l 1,31,-1
 1136 973 l 1,32,-1
 352 973 l 2,33,34
 313 973 313 973 284 944 c 256,35,36
 254 915 254 915 238 869 c 2,37,-1
 0 141 l 2,38,39
 -7 121 -7 121 -7 100 c 0,40,41
 -7 58 -7 58 17 30 c 0,42,43
 42 0 42 0 83 0 c 2,26,-1
1317 973 m 2,44,45
 1278 973 1278 973 1248 944 c 256,46,47
 1218 915 1218 915 1202 869 c 2,48,-1
 915 0 l 1,49,-1
 1325 0 l 1,50,-1
 1389 205 l 1,51,-1
 1786 205 l 1,52,-1
 1893 512 l 1,53,-1
 1482 512 l 1,54,-1
 1511 614 l 1,55,-1
 1921 614 l 1,56,-1
 2049 973 l 1,57,-1
 1317 973 l 2,44,45
EndSplineSet
Validated: 9
EndChar

StartChar: Agrave
Encoding: 192 192 70
Width: 716
Flags: W
LayerCount: 2
Fore
SplineSet
446 184 m 1,0,-1
 492 0 l 1,1,-1
 666 0 l 1,2,-1
 451 1024 l 1,3,-1
 266 1024 l 1,4,-1
 51 0 l 1,5,-1
 236 0 l 1,6,-1
 276 184 l 1,7,-1
 446 184 l 1,0,-1
358 547 m 1,8,-1
 402 369 l 1,9,-1
 318 369 l 1,10,-1
 358 547 l 1,8,-1
284 1393 m 1,11,-1
 381 1208 l 1,12,-1
 524 1208 l 1,13,-1
 432 1393 l 1,14,-1
 284 1393 l 1,11,-1
EndSplineSet
Validated: 9
EndChar

StartChar: Acircumflex
Encoding: 194 194 71
Width: 716
Flags: W
LayerCount: 2
Fore
SplineSet
446 184 m 1,0,-1
 492 0 l 1,1,-1
 666 0 l 1,2,-1
 451 1024 l 1,3,-1
 266 1024 l 1,4,-1
 51 0 l 1,5,-1
 236 0 l 1,6,-1
 276 184 l 1,7,-1
 446 184 l 1,0,-1
358 547 m 1,8,-1
 402 369 l 1,9,-1
 318 369 l 1,10,-1
 358 547 l 1,8,-1
358 1270 m 1,11,-1
 381 1208 l 1,12,-1
 524 1208 l 1,13,-1
 432 1393 l 1,14,-1
 284 1393 l 1,15,-1
 191 1208 l 1,16,-1
 335 1208 l 1,17,-1
 358 1270 l 1,11,-1
EndSplineSet
Validated: 9
EndChar

StartChar: Adieresis
Encoding: 196 196 72
Width: 716
Flags: W
LayerCount: 2
Fore
SplineSet
446 184 m 1,0,-1
 492 0 l 1,1,-1
 666 0 l 1,2,-1
 451 1024 l 1,3,-1
 266 1024 l 1,4,-1
 51 0 l 1,5,-1
 236 0 l 1,6,-1
 276 184 l 1,7,-1
 446 184 l 1,0,-1
358 547 m 1,8,-1
 402 369 l 1,9,-1
 318 369 l 1,10,-1
 358 547 l 1,8,-1
82 1208 m 1,11,-1
 266 1208 l 1,12,-1
 266 1393 l 1,13,-1
 82 1393 l 1,14,-1
 82 1208 l 1,11,-1
451 1208 m 1,15,-1
 635 1208 l 1,16,-1
 635 1393 l 1,17,-1
 451 1393 l 1,18,-1
 451 1208 l 1,15,-1
EndSplineSet
Validated: 9
EndChar

StartChar: Ccedilla
Encoding: 199 199 73
Width: 747
Flags: W
LayerCount: 2
Fore
SplineSet
681 307 m 1,0,-1
 497 307 l 1,1,2
 497 284 497 284 486 263 c 0,3,4
 476 240 476 240 459 223 c 0,5,6
 441 205 441 205 419 195 c 0,7,8
 396 185 396 185 374 184 c 256,9,10
 351 184 351 184 330 195 c 0,11,12
 307 205 307 205 290 223 c 0,13,14
 272 240 272 240 261 263 c 0,15,16
 251 285 251 285 251 307 c 2,17,-1
 251 717 l 2,18,19
 251 740 251 740 261 762 c 0,20,21
 271 784 271 784 290 802 c 0,22,23
 307 819 307 819 330 829 c 0,24,25
 352 839 352 839 374 840 c 256,26,27
 397 840 397 840 419 829 c 0,28,29
 441 819 441 819 459 802 c 0,30,31
 476 784 476 784 486 762 c 0,32,33
 496 739 496 739 497 717 c 1,34,-1
 681 717 l 1,35,36
 681 772 681 772 655 827 c 0,37,38
 629 881 629 881 586 927 c 0,39,40
 541 972 541 972 485 998 c 0,41,42
 430 1024 430 1024 374 1024 c 256,43,44
 318 1024 318 1024 262 998 c 256,45,46
 207 972 207 972 163 929 c 0,47,48
 118 884 118 884 92 828 c 256,49,50
 66 773 66 773 67 717 c 2,51,-1
 67 307 l 2,52,53
 68 257 68 257 75 219 c 256,54,55
 82 181 82 181 92 159 c 256,56,57
 102 136 102 136 114 123 c 0,58,59
 125 109 125 109 138 96 c 0,60,61
 140 94 140 94 142 92 c 1,62,63
 114 68 114 68 96 46 c 0,64,65
 77 24 77 24 61 0 c 1,66,-1
 225 -92 l 1,67,68
 229 -87 229 -87 238 -77 c 0,69,70
 270 -37 270 -37 297 -18 c 0,71,72
 324 0 324 0 374 0 c 0,73,74
 430 0 430 0 485 26 c 256,75,76
 540 52 540 52 586 96 c 0,77,78
 630 140 630 140 655 196 c 256,79,80
 681 251 681 251 681 307 c 1,0,-1
EndSplineSet
Validated: 41
EndChar

StartChar: Egrave
Encoding: 200 200 74
Width: 768
Flags: W
LayerCount: 2
Fore
SplineSet
309 1393 m 1,0,-1
 407 1208 l 1,1,-1
 550 1208 l 1,2,-1
 458 1393 l 1,3,-1
 309 1393 l 1,0,-1
287 607 m 1,4,-1
 287 840 l 1,5,-1
 717 840 l 1,6,-1
 717 1024 l 1,7,-1
 102 1024 l 1,8,-1
 102 0 l 1,9,-1
 717 0 l 1,10,-1
 717 184 l 1,11,-1
 287 184 l 1,12,-1
 287 423 l 1,13,-1
 471 423 l 1,14,-1
 471 607 l 1,15,-1
 287 607 l 1,4,-1
EndSplineSet
Validated: 9
EndChar

StartChar: Eacute
Encoding: 201 201 75
Width: 768
Flags: W
LayerCount: 2
Fore
SplineSet
458 1393 m 1,0,-1
 309 1393 l 1,1,-1
 217 1208 l 1,2,-1
 360 1208 l 1,3,-1
 458 1393 l 1,0,-1
287 607 m 1,4,-1
 287 840 l 1,5,-1
 717 840 l 1,6,-1
 717 1024 l 1,7,-1
 102 1024 l 1,8,-1
 102 0 l 1,9,-1
 717 0 l 1,10,-1
 717 184 l 1,11,-1
 287 184 l 1,12,-1
 287 423 l 1,13,-1
 471 423 l 1,14,-1
 471 607 l 1,15,-1
 287 607 l 1,4,-1
EndSplineSet
Validated: 9
EndChar

StartChar: Ecircumflex
Encoding: 202 202 76
Width: 768
Flags: W
LayerCount: 2
Fore
SplineSet
287 607 m 1,0,-1
 287 840 l 1,1,-1
 717 840 l 1,2,-1
 717 1024 l 1,3,-1
 102 1024 l 1,4,-1
 102 0 l 1,5,-1
 717 0 l 1,6,-1
 717 184 l 1,7,-1
 287 184 l 1,8,-1
 287 423 l 1,9,-1
 471 423 l 1,10,-1
 471 607 l 1,11,-1
 287 607 l 1,0,-1
384 1270 m 1,12,-1
 407 1208 l 1,13,-1
 550 1208 l 1,14,-1
 458 1393 l 1,15,-1
 309 1393 l 1,16,-1
 217 1208 l 1,17,-1
 360 1208 l 1,18,-1
 384 1270 l 1,12,-1
EndSplineSet
Validated: 9
EndChar

StartChar: Edieresis
Encoding: 203 203 77
Width: 768
Flags: W
LayerCount: 2
Fore
SplineSet
287 607 m 1,0,-1
 287 840 l 1,1,-1
 717 840 l 1,2,-1
 717 1024 l 1,3,-1
 102 1024 l 1,4,-1
 102 0 l 1,5,-1
 717 0 l 1,6,-1
 717 184 l 1,7,-1
 287 184 l 1,8,-1
 287 423 l 1,9,-1
 471 423 l 1,10,-1
 471 607 l 1,11,-1
 287 607 l 1,0,-1
476 1208 m 1,12,-1
 660 1208 l 1,13,-1
 660 1393 l 1,14,-1
 476 1393 l 1,15,-1
 476 1208 l 1,12,-1
108 1208 m 1,16,-1
 292 1208 l 1,17,-1
 292 1393 l 1,18,-1
 108 1393 l 1,19,-1
 108 1208 l 1,16,-1
EndSplineSet
Validated: 9
EndChar

StartChar: Icircumflex
Encoding: 206 206 78
Width: 389
Flags: W
LayerCount: 2
Fore
SplineSet
194 1270 m 1,0,-1
 217 1208 l 1,1,-1
 360 1208 l 1,2,-1
 268 1393 l 1,3,-1
 120 1393 l 1,4,-1
 28 1208 l 1,5,-1
 171 1208 l 1,6,-1
 194 1270 l 1,0,-1
102 0 m 1,7,-1
 287 0 l 1,8,-1
 287 1024 l 1,9,-1
 102 1024 l 1,10,-1
 102 0 l 1,7,-1
EndSplineSet
Validated: 9
EndChar

StartChar: Idieresis
Encoding: 207 207 79
Width: 655
Flags: W
LayerCount: 2
Fore
SplineSet
420 1208 m 1,0,-1
 604 1208 l 1,1,-1
 604 1393 l 1,2,-1
 420 1393 l 1,3,-1
 420 1208 l 1,0,-1
51 1208 m 1,4,-1
 236 1208 l 1,5,-1
 236 1393 l 1,6,-1
 51 1393 l 1,7,-1
 51 1208 l 1,4,-1
236 0 m 1,8,-1
 420 0 l 1,9,-1
 420 1024 l 1,10,-1
 236 1024 l 1,11,-1
 236 0 l 1,8,-1
EndSplineSet
Validated: 9
EndChar

StartChar: Ocircumflex
Encoding: 212 212 80
Width: 747
Flags: W
LayerCount: 2
Fore
SplineSet
374 1270 m 1,0,-1
 396 1208 l 1,1,-1
 540 1208 l 1,2,-1
 447 1393 l 1,3,-1
 299 1393 l 1,4,-1
 207 1208 l 1,5,-1
 350 1208 l 1,6,-1
 374 1270 l 1,0,-1
497 307 m 2,7,8
 497 284 497 284 486 263 c 0,9,10
 476 240 476 240 459 223 c 0,11,12
 441 205 441 205 419 195 c 0,13,14
 396 185 396 185 374 184 c 256,15,16
 351 184 351 184 330 195 c 0,17,18
 307 205 307 205 290 223 c 0,19,20
 272 240 272 240 261 263 c 0,21,22
 251 285 251 285 251 307 c 2,23,-1
 251 717 l 2,24,25
 251 740 251 740 261 762 c 0,26,27
 271 784 271 784 290 802 c 0,28,29
 307 819 307 819 330 829 c 0,30,31
 352 839 352 839 374 840 c 256,32,33
 397 840 397 840 419 829 c 0,34,35
 441 819 441 819 459 802 c 0,36,37
 476 784 476 784 486 762 c 0,38,39
 496 739 496 739 497 717 c 2,40,-1
 497 307 l 2,7,8
681 307 m 2,41,-1
 681 717 l 2,42,43
 681 773 681 773 655 828 c 256,44,45
 629 883 629 883 586 929 c 0,46,47
 541 973 541 973 485 998 c 256,48,49
 430 1024 430 1024 374 1024 c 256,50,51
 318 1024 318 1024 262 998 c 256,52,53
 207 972 207 972 163 929 c 0,54,55
 118 884 118 884 92 828 c 256,56,57
 66 773 66 773 67 717 c 2,58,-1
 67 307 l 2,59,60
 67 251 67 251 92 196 c 256,61,62
 118 141 118 141 163 96 c 0,63,64
 207 51 207 51 262 26 c 256,65,66
 317 0 317 0 374 0 c 256,67,68
 430 0 430 0 485 26 c 256,69,70
 540 52 540 52 586 96 c 0,71,72
 630 140 630 140 655 196 c 256,73,74
 681 251 681 251 681 307 c 2,41,-1
EndSplineSet
Validated: 41
EndChar

StartChar: Odieresis
Encoding: 214 214 81
Width: 747
Flags: W
LayerCount: 2
Fore
SplineSet
97 1208 m 1,0,-1
 282 1208 l 1,1,-1
 282 1393 l 1,2,-1
 97 1393 l 1,3,-1
 97 1208 l 1,0,-1
466 1208 m 1,4,-1
 650 1208 l 1,5,-1
 650 1393 l 1,6,-1
 466 1393 l 1,7,-1
 466 1208 l 1,4,-1
497 307 m 2,8,9
 497 284 497 284 486 263 c 0,10,11
 476 240 476 240 459 223 c 0,12,13
 441 205 441 205 419 195 c 0,14,15
 396 185 396 185 374 184 c 256,16,17
 351 184 351 184 330 195 c 0,18,19
 307 205 307 205 290 223 c 0,20,21
 272 240 272 240 261 263 c 0,22,23
 251 285 251 285 251 307 c 2,24,-1
 251 717 l 2,25,26
 251 740 251 740 261 762 c 0,27,28
 271 784 271 784 290 802 c 0,29,30
 307 819 307 819 330 829 c 0,31,32
 352 839 352 839 374 840 c 256,33,34
 397 840 397 840 419 829 c 0,35,36
 441 819 441 819 459 802 c 0,37,38
 476 784 476 784 486 762 c 0,39,40
 496 739 496 739 497 717 c 2,41,-1
 497 307 l 2,8,9
681 307 m 2,42,-1
 681 717 l 2,43,44
 681 773 681 773 655 828 c 256,45,46
 629 883 629 883 586 929 c 0,47,48
 541 973 541 973 485 998 c 256,49,50
 430 1024 430 1024 374 1024 c 256,51,52
 318 1024 318 1024 262 998 c 256,53,54
 207 972 207 972 163 929 c 0,55,56
 118 884 118 884 92 828 c 256,57,58
 66 773 66 773 67 717 c 2,59,-1
 67 307 l 2,60,61
 67 251 67 251 92 196 c 256,62,63
 118 141 118 141 163 96 c 0,64,65
 207 51 207 51 262 26 c 256,66,67
 317 0 317 0 374 0 c 256,68,69
 430 0 430 0 485 26 c 256,70,71
 540 52 540 52 586 96 c 0,72,73
 630 140 630 140 655 196 c 256,74,75
 681 251 681 251 681 307 c 2,42,-1
EndSplineSet
Validated: 41
EndChar

StartChar: Ugrave
Encoding: 217 217 82
Width: 819
Flags: W
LayerCount: 2
Fore
SplineSet
335 1393 m 1,0,-1
 432 1208 l 1,1,-1
 575 1208 l 1,2,-1
 483 1393 l 1,3,-1
 335 1393 l 1,0,-1
717 1024 m 1,4,-1
 532 1024 l 1,5,-1
 532 307 l 2,6,7
 532 284 532 284 522 263 c 0,8,9
 512 240 512 240 495 223 c 0,10,11
 477 205 477 205 455 195 c 0,12,13
 432 185 432 185 410 184 c 256,14,15
 387 184 387 184 366 195 c 0,16,17
 343 205 343 205 326 223 c 0,18,19
 308 240 308 240 297 263 c 0,20,21
 287 285 287 285 287 307 c 2,22,-1
 287 1024 l 1,23,-1
 102 1024 l 1,24,-1
 102 307 l 2,25,26
 102 251 102 251 128 196 c 256,27,28
 154 141 154 141 199 96 c 0,29,30
 243 51 243 51 298 26 c 256,31,32
 353 0 353 0 410 0 c 256,33,34
 466 0 466 0 521 26 c 256,35,36
 576 52 576 52 622 96 c 0,37,38
 666 140 666 140 691 196 c 256,39,40
 717 251 717 251 717 307 c 2,41,-1
 717 1024 l 1,4,-1
EndSplineSet
Validated: 9
EndChar

StartChar: Ucircumflex
Encoding: 219 219 83
Width: 819
Flags: W
LayerCount: 2
Fore
SplineSet
717 1024 m 1,0,-1
 532 1024 l 1,1,-1
 532 307 l 2,2,3
 532 284 532 284 522 263 c 0,4,5
 512 240 512 240 495 223 c 0,6,7
 477 205 477 205 455 195 c 0,8,9
 432 185 432 185 410 184 c 256,10,11
 387 184 387 184 366 195 c 0,12,13
 343 205 343 205 326 223 c 0,14,15
 308 240 308 240 297 263 c 0,16,17
 287 285 287 285 287 307 c 2,18,-1
 287 1024 l 1,19,-1
 102 1024 l 1,20,-1
 102 307 l 2,21,22
 102 251 102 251 128 196 c 256,23,24
 154 141 154 141 199 96 c 0,25,26
 243 51 243 51 298 26 c 256,27,28
 353 0 353 0 410 0 c 256,29,30
 466 0 466 0 521 26 c 256,31,32
 576 52 576 52 622 96 c 0,33,34
 666 140 666 140 691 196 c 256,35,36
 717 251 717 251 717 307 c 2,37,-1
 717 1024 l 1,0,-1
410 1270 m 1,38,-1
 432 1208 l 1,39,-1
 575 1208 l 1,40,-1
 483 1393 l 1,41,-1
 335 1393 l 1,42,-1
 243 1208 l 1,43,-1
 386 1208 l 1,44,-1
 410 1270 l 1,38,-1
EndSplineSet
Validated: 9
EndChar

StartChar: Udieresis
Encoding: 220 220 84
Width: 819
Flags: W
LayerCount: 2
Fore
SplineSet
717 1024 m 1,0,-1
 532 1024 l 1,1,-1
 532 307 l 2,2,3
 532 284 532 284 522 263 c 0,4,5
 512 240 512 240 495 223 c 0,6,7
 477 205 477 205 455 195 c 0,8,9
 432 185 432 185 410 184 c 256,10,11
 387 184 387 184 366 195 c 0,12,13
 343 205 343 205 326 223 c 0,14,15
 308 240 308 240 297 263 c 0,16,17
 287 285 287 285 287 307 c 2,18,-1
 287 1024 l 1,19,-1
 102 1024 l 1,20,-1
 102 307 l 2,21,22
 102 251 102 251 128 196 c 256,23,24
 154 141 154 141 199 96 c 0,25,26
 243 51 243 51 298 26 c 256,27,28
 353 0 353 0 410 0 c 256,29,30
 466 0 466 0 521 26 c 256,31,32
 576 52 576 52 622 96 c 0,33,34
 666 140 666 140 691 196 c 256,35,36
 717 251 717 251 717 307 c 2,37,-1
 717 1024 l 1,0,-1
133 1208 m 1,38,-1
 317 1208 l 1,39,-1
 317 1393 l 1,40,-1
 133 1393 l 1,41,-1
 133 1208 l 1,38,-1
502 1208 m 1,42,-1
 686 1208 l 1,43,-1
 686 1393 l 1,44,-1
 502 1393 l 1,45,-1
 502 1208 l 1,42,-1
EndSplineSet
Validated: 9
EndChar

StartChar: agrave
Encoding: 224 224 85
Width: 450
Flags: W
LayerCount: 2
Fore
SplineSet
225 338 m 0,0,1
 56 338 56 338 56 169 c 256,2,3
 56 0 56 0 225 0 c 2,4,-1
 394 0 l 1,5,-1
 394 394 l 2,6,7
 394 563 394 563 225 563 c 256,8,9
 56 563 56 563 56 394 c 1,10,-1
 169 394 l 1,11,12
 169 416 169 416 186 433 c 0,13,14
 202 450 202 450 225 451 c 256,15,16
 248 451 248 451 265 434 c 0,17,18
 281 417 281 417 282 394 c 0,19,20
 282 372 282 372 265 355 c 0,21,22
 248 338 248 338 225 338 c 0,0,1
282 282 m 2,23,-1
 282 169 l 2,24,25
 282 147 282 147 265 130 c 0,26,27
 248 113 248 113 225 113 c 256,28,29
 202 113 202 113 186 130 c 0,30,31
 169 147 169 147 169 169 c 256,32,33
 169 191 169 191 186 208 c 0,34,35
 202 225 202 225 225 225 c 256,36,37
 248 225 248 225 265 243 c 0,38,39
 282 260 282 260 282 282 c 2,23,-1
282 620 m 1,40,-1
 225 732 l 1,41,-1
 133 732 l 1,42,-1
 225 620 l 1,43,-1
 282 620 l 1,40,-1
EndSplineSet
Validated: 9
EndChar

StartChar: acircumflex
Encoding: 226 226 86
Width: 450
Flags: W
LayerCount: 2
Fore
SplineSet
225 338 m 0,0,1
 56 338 56 338 56 169 c 256,2,3
 56 0 56 0 225 0 c 2,4,-1
 394 0 l 1,5,-1
 394 394 l 2,6,7
 394 563 394 563 225 563 c 256,8,9
 56 563 56 563 56 394 c 1,10,-1
 169 394 l 1,11,12
 169 416 169 416 186 433 c 0,13,14
 202 450 202 450 225 451 c 256,15,16
 248 451 248 451 265 434 c 0,17,18
 281 417 281 417 282 394 c 0,19,20
 282 372 282 372 265 355 c 0,21,22
 248 338 248 338 225 338 c 0,0,1
282 282 m 2,23,-1
 282 169 l 2,24,25
 282 147 282 147 265 130 c 0,26,27
 248 113 248 113 225 113 c 256,28,29
 202 113 202 113 186 130 c 0,30,31
 169 147 169 147 169 169 c 256,32,33
 169 191 169 191 186 208 c 0,34,35
 202 225 202 225 225 225 c 256,36,37
 248 225 248 225 265 243 c 0,38,39
 282 260 282 260 282 282 c 2,23,-1
225 676 m 1,40,-1
 271 620 l 1,41,-1
 328 620 l 1,42,-1
 271 732 l 1,43,-1
 179 732 l 1,44,-1
 123 620 l 1,45,-1
 179 620 l 1,46,-1
 225 676 l 1,40,-1
EndSplineSet
Validated: 9
EndChar

StartChar: ccedilla
Encoding: 231 231 87
Width: 435
Flags: W
LayerCount: 2
Fore
SplineSet
123 -111 m 1,0,-1
 179 -111 l 1,1,-1
 271 2 l 1,2,-1
 179 2 l 1,3,-1
 123 -111 l 1,0,-1
394 169 m 1,4,-1
 282 169 l 1,5,6
 282 147 282 147 265 130 c 0,7,8
 248 113 248 113 225 113 c 256,9,10
 202 113 202 113 186 130 c 0,11,12
 169 147 169 147 169 169 c 2,13,-1
 169 394 l 2,14,15
 169 416 169 416 186 433 c 0,16,17
 202 450 202 450 225 451 c 256,18,19
 248 451 248 451 265 434 c 0,20,21
 281 417 281 417 282 394 c 1,22,-1
 394 394 l 1,23,24
 394 563 394 563 225 563 c 256,25,26
 56 563 56 563 56 394 c 2,27,-1
 56 169 l 2,28,29
 56 0 56 0 225 0 c 256,30,31
 394 0 394 0 394 169 c 1,4,-1
EndSplineSet
Validated: 5
EndChar

StartChar: egrave
Encoding: 232 232 88
Width: 450
Flags: W
LayerCount: 2
Fore
SplineSet
282 620 m 1,0,-1
 225 732 l 1,1,-1
 133 732 l 1,2,-1
 225 620 l 1,3,-1
 282 620 l 1,0,-1
394 225 m 1,4,-1
 394 394 l 2,5,6
 394 563 394 563 225 563 c 256,7,8
 56 563 56 563 56 394 c 2,9,-1
 56 169 l 2,10,11
 56 0 56 0 225 0 c 256,12,13
 394 0 394 0 394 169 c 1,14,-1
 282 169 l 1,15,16
 282 147 282 147 265 130 c 0,17,18
 248 113 248 113 225 113 c 256,19,20
 202 113 202 113 186 130 c 0,21,22
 169 147 169 147 169 169 c 2,23,-1
 169 225 l 1,24,-1
 394 225 l 1,4,-1
282 338 m 1,25,-1
 169 338 l 1,26,-1
 169 394 l 2,27,28
 169 416 169 416 186 433 c 0,29,30
 202 450 202 450 225 451 c 256,31,32
 248 451 248 451 265 434 c 0,33,34
 281 417 281 417 282 394 c 2,35,-1
 282 338 l 1,25,-1
EndSplineSet
Validated: 9
EndChar

StartChar: eacute
Encoding: 233 233 89
Width: 450
Flags: W
LayerCount: 2
Fore
SplineSet
169 620 m 1,0,-1
 225 620 l 1,1,-1
 317 732 l 1,2,-1
 225 732 l 1,3,-1
 169 620 l 1,0,-1
282 338 m 1,4,-1
 169 338 l 1,5,-1
 169 394 l 2,6,7
 169 416 169 416 186 433 c 0,8,9
 202 450 202 450 225 451 c 256,10,11
 248 451 248 451 265 434 c 0,12,13
 281 417 281 417 282 394 c 2,14,-1
 282 338 l 1,4,-1
394 225 m 1,15,-1
 394 394 l 2,16,17
 394 563 394 563 225 563 c 256,18,19
 56 563 56 563 56 394 c 2,20,-1
 56 169 l 2,21,22
 56 0 56 0 225 0 c 256,23,24
 394 0 394 0 394 169 c 1,25,-1
 282 169 l 1,26,27
 282 147 282 147 265 130 c 0,28,29
 248 113 248 113 225 113 c 256,30,31
 202 113 202 113 186 130 c 0,32,33
 169 147 169 147 169 169 c 2,34,-1
 169 225 l 1,35,-1
 394 225 l 1,15,-1
EndSplineSet
Validated: 9
EndChar

StartChar: ecircumflex
Encoding: 234 234 90
Width: 450
Flags: W
LayerCount: 2
Fore
SplineSet
225 676 m 1,0,-1
 271 620 l 1,1,-1
 328 620 l 1,2,-1
 271 732 l 1,3,-1
 179 732 l 1,4,-1
 123 620 l 1,5,-1
 179 620 l 1,6,-1
 225 676 l 1,0,-1
394 225 m 1,7,-1
 394 394 l 2,8,9
 394 563 394 563 225 563 c 256,10,11
 56 563 56 563 56 394 c 2,12,-1
 56 169 l 2,13,14
 56 0 56 0 225 0 c 256,15,16
 394 0 394 0 394 169 c 1,17,-1
 282 169 l 1,18,19
 282 147 282 147 265 130 c 0,20,21
 248 113 248 113 225 113 c 256,22,23
 202 113 202 113 186 130 c 0,24,25
 169 147 169 147 169 169 c 2,26,-1
 169 225 l 1,27,-1
 394 225 l 1,7,-1
282 338 m 1,28,-1
 169 338 l 1,29,-1
 169 394 l 2,30,31
 169 416 169 416 186 433 c 0,32,33
 202 450 202 450 225 451 c 256,34,35
 248 451 248 451 265 434 c 0,36,37
 281 417 281 417 282 394 c 2,38,-1
 282 338 l 1,28,-1
EndSplineSet
Validated: 9
EndChar

StartChar: edieresis
Encoding: 235 235 91
Width: 450
Flags: W
LayerCount: 2
Fore
SplineSet
84 620 m 1,0,-1
 197 620 l 1,1,-1
 197 732 l 1,2,-1
 84 732 l 1,3,-1
 84 620 l 1,0,-1
366 620 m 1,4,-1
 366 732 l 1,5,-1
 253 732 l 1,6,-1
 253 620 l 1,7,-1
 366 620 l 1,4,-1
394 225 m 1,8,-1
 394 394 l 2,9,10
 394 563 394 563 225 563 c 256,11,12
 56 563 56 563 56 394 c 2,13,-1
 56 169 l 2,14,15
 56 0 56 0 225 0 c 256,16,17
 394 0 394 0 394 169 c 1,18,-1
 282 169 l 1,19,20
 282 147 282 147 265 130 c 0,21,22
 248 113 248 113 225 113 c 256,23,24
 202 113 202 113 186 130 c 0,25,26
 169 147 169 147 169 169 c 2,27,-1
 169 225 l 1,28,-1
 394 225 l 1,8,-1
282 338 m 1,29,-1
 169 338 l 1,30,-1
 169 394 l 2,31,32
 169 416 169 416 186 433 c 0,33,34
 202 450 202 450 225 451 c 256,35,36
 248 451 248 451 265 434 c 0,37,38
 281 417 281 417 282 394 c 2,39,-1
 282 338 l 1,29,-1
EndSplineSet
Validated: 9
EndChar

StartChar: icircumflex
Encoding: 238 238 92
Width: 256
Flags: W
LayerCount: 2
Fore
SplineSet
72 0 m 1,0,-1
 184 0 l 1,1,-1
 184 563 l 1,2,-1
 72 563 l 1,3,-1
 72 0 l 1,0,-1
128 676 m 1,4,-1
 174 620 l 1,5,-1
 230 620 l 1,6,-1
 174 732 l 1,7,-1
 82 732 l 1,8,-1
 26 620 l 1,9,-1
 82 620 l 1,10,-1
 128 676 l 1,4,-1
EndSplineSet
Validated: 9
EndChar

StartChar: idieresis
Encoding: 239 239 93
Width: 363
Flags: W
LayerCount: 2
Fore
SplineSet
323 620 m 1,0,-1
 323 732 l 1,1,-1
 210 732 l 1,2,-1
 210 620 l 1,3,-1
 323 620 l 1,0,-1
41 620 m 1,4,-1
 154 620 l 1,5,-1
 154 732 l 1,6,-1
 41 732 l 1,7,-1
 41 620 l 1,4,-1
125 0 m 1,8,-1
 238 0 l 1,9,-1
 238 563 l 1,10,-1
 125 563 l 1,11,-1
 125 0 l 1,8,-1
EndSplineSet
Validated: 9
EndChar

StartChar: ocircumflex
Encoding: 244 244 94
Width: 450
Flags: W
LayerCount: 2
Fore
SplineSet
282 169 m 2,0,1
 282 147 282 147 265 130 c 0,2,3
 248 113 248 113 225 113 c 256,4,5
 202 113 202 113 186 130 c 0,6,7
 169 147 169 147 169 169 c 2,8,-1
 169 394 l 2,9,10
 169 416 169 416 186 433 c 0,11,12
 202 450 202 450 225 451 c 256,13,14
 248 451 248 451 265 434 c 0,15,16
 281 417 281 417 282 394 c 2,17,-1
 282 169 l 2,0,1
394 169 m 2,18,-1
 394 394 l 2,19,20
 394 563 394 563 225 563 c 256,21,22
 56 563 56 563 56 394 c 2,23,-1
 56 169 l 2,24,25
 56 0 56 0 225 0 c 256,26,27
 394 0 394 0 394 169 c 2,18,-1
225 676 m 1,28,-1
 271 620 l 1,29,-1
 328 620 l 1,30,-1
 271 732 l 1,31,-1
 179 732 l 1,32,-1
 123 620 l 1,33,-1
 179 620 l 1,34,-1
 225 676 l 1,28,-1
EndSplineSet
Validated: 9
EndChar

StartChar: ugrave
Encoding: 249 249 95
Width: 465
Flags: W
LayerCount: 2
Fore
SplineSet
225 0 m 0,0,1
 248 0 248 0 260 2 c 0,2,3
 271 3 271 3 282 6 c 1,4,-1
 282 0 l 1,5,-1
 394 0 l 1,6,-1
 394 563 l 1,7,-1
 282 563 l 1,8,-1
 282 169 l 2,9,10
 282 147 282 147 265 130 c 0,11,12
 248 113 248 113 225 113 c 256,13,14
 202 113 202 113 186 130 c 0,15,16
 169 147 169 147 169 169 c 2,17,-1
 169 563 l 1,18,-1
 56 563 l 1,19,-1
 56 169 l 2,20,21
 56 0 56 0 225 0 c 0,0,1
282 620 m 1,22,-1
 225 732 l 1,23,-1
 133 732 l 1,24,-1
 225 620 l 1,25,-1
 282 620 l 1,22,-1
EndSplineSet
Validated: 9
EndChar

StartChar: ucircumflex
Encoding: 251 251 96
Width: 465
Flags: W
LayerCount: 2
Fore
SplineSet
225 0 m 0,0,1
 248 0 248 0 260 2 c 0,2,3
 271 3 271 3 282 6 c 1,4,-1
 282 0 l 1,5,-1
 394 0 l 1,6,-1
 394 563 l 1,7,-1
 282 563 l 1,8,-1
 282 169 l 2,9,10
 282 147 282 147 265 130 c 0,11,12
 248 113 248 113 225 113 c 256,13,14
 202 113 202 113 186 130 c 0,15,16
 169 147 169 147 169 169 c 2,17,-1
 169 563 l 1,18,-1
 56 563 l 1,19,-1
 56 169 l 2,20,21
 56 0 56 0 225 0 c 0,0,1
225 676 m 1,22,-1
 271 620 l 1,23,-1
 328 620 l 1,24,-1
 271 732 l 1,25,-1
 179 732 l 1,26,-1
 123 620 l 1,27,-1
 179 620 l 1,28,-1
 225 676 l 1,22,-1
EndSplineSet
Validated: 9
EndChar

StartChar: exclam
Encoding: 33 33 97
Width: 2406
Flags: W
LayerCount: 2
Fore
SplineSet
1362 869 m 2,0,-1
 1075 0 l 1,1,-1
 1485 0 l 1,2,-1
 1613 410 l 1,3,-1
 1818 0 l 1,4,-1
 2253 0 l 1,5,-1
 2560 973 l 1,6,-1
 2150 973 l 1,7,-1
 1997 538 l 1,8,-1
 1785 973 l 1,9,-1
 1475 973 l 2,10,11
 1441 973 1441 973 1410 945 c 256,12,13
 1379 917 1379 917 1362 869 c 2,0,-1
512 973 m 2,14,15
 473 973 473 973 446 946 c 256,16,17
 419 919 419 919 397 869 c 1,18,-1
 307 614 l 1,19,-1
 563 307 l 1,20,-1
 205 307 l 1,21,-1
 102 0 l 1,22,-1
 973 0 l 1,23,-1
 1075 307 l 1,24,-1
 819 614 l 1,25,-1
 1137 614 l 1,26,-1
 1265 973 l 1,27,-1
 512 973 l 2,14,15
EndSplineSet
Validated: 9
EndChar

StartChar: dollar
Encoding: 36 36 98
Width: 1945
Flags: W
LayerCount: 2
Fore
SplineSet
1622 243 m 1,0,-1
 1629 272 l 1,1,-1
 1911 272 l 1,2,-1
 1923 330 l 1,3,-1
 1608 330 l 2,4,5
 1584 330 1584 330 1577 297 c 2,6,-1
 1559 211 l 2,7,8
 1556 200 1556 200 1555 195 c 0,9,10
 1555 186 1555 186 1570 185 c 2,11,-1
 1893 185 l 1,12,-1
 1906 243 l 1,13,-1
 1622 243 l 1,0,-1
1572 0 m 1,14,-1
 1592 99 l 1,15,-1
 1876 99 l 1,16,-1
 1887 157 l 1,17,-1
 1546 157 l 1,18,-1
 1513 0 l 1,19,-1
 1572 0 l 1,14,-1
1482 0 m 1,20,-1
 1553 330 l 2,21,22
 1558 359 1558 359 1589 358 c 2,23,-1
 1930 358 l 1,24,-1
 1942 416 l 1,25,-1
 1562 416 l 2,26,27
 1530 416 1530 416 1520 409 c 0,28,29
 1509 401 1509 401 1503 378 c 2,30,-1
 1423 0 l 1,31,-1
 1482 0 l 1,20,-1
1044 57 m 2,32,33
 1019 57 1019 57 1020 72 c 0,34,35
 1020 79 1020 79 1024 91 c 2,36,-1
 1075 330 l 2,37,38
 1080 359 1080 359 1111 358 c 2,39,-1
 1452 358 l 1,40,-1
 1463 416 l 1,41,-1
 1083 416 l 2,42,43
 1051 416 1051 416 1041 409 c 0,44,45
 1030 401 1030 401 1025 378 c 2,46,-1
 954 41 l 2,47,48
 951 29 951 29 951 23 c 0,49,50
 951 12 951 12 961 6 c 0,51,52
 970 0 970 0 994 0 c 2,53,-1
 1375 0 l 1,54,-1
 1388 57 l 1,55,-1
 1044 57 l 2,32,33
1408 143 m 1,56,-1
 1143 143 l 2,57,58
 1128 143 1128 143 1127 154 c 0,59,60
 1127 158 1127 158 1130 169 c 2,61,-1
 1130 171 l 1,62,-1
 1153 272 l 1,63,-1
 1433 272 l 1,64,-1
 1445 330 l 1,65,-1
 1129 330 l 2,66,67
 1105 330 1105 330 1099 297 c 2,68,-1
 1058 112 l 2,69,70
 1055 102 1055 102 1055 96 c 0,71,72
 1055 86 1055 86 1072 86 c 2,73,-1
 1396 86 l 1,74,-1
 1408 143 l 1,56,-1
436 41 m 2,75,-1
 460 124 l 2,76,77
 466 146 466 146 466 156 c 0,78,79
 466 180 466 180 442 197 c 2,80,-1
 325 272 l 1,81,-1
 479 272 l 1,82,-1
 493 330 l 1,83,-1
 201 330 l 2,84,85
 184 330 184 330 173 324 c 0,86,87
 162 317 162 317 162 306 c 0,88,89
 162 293 162 293 181 280 c 2,90,-1
 387 143 l 2,91,92
 403 136 403 136 403 124 c 0,93,94
 403 119 403 119 401 113 c 2,95,-1
 392 77 l 2,96,97
 388 66 388 66 381 61 c 256,98,99
 374 57 374 57 358 57 c 2,100,-1
 14 57 l 1,101,-1
 1 0 l 1,102,-1
 387 0 l 2,103,104
 405 0 405 0 417 8 c 0,105,106
 427 15 427 15 436 41 c 2,75,-1
36 143 m 1,107,-1
 22 86 l 1,108,-1
 304 86 l 2,109,110
 342 86 342 86 342 105 c 0,111,112
 342 123 342 123 306 145 c 2,113,-1
 153 252 l 2,114,115
 134 264 134 264 126 272 c 256,116,117
 119 280 119 280 119 290 c 2,118,-1
 119 295 l 2,119,120
 120 299 120 299 120 301 c 2,121,-1
 127 330 l 2,122,123
 130 345 130 345 137 352 c 0,124,125
 144 358 144 358 160 358 c 2,126,-1
 501 358 l 1,127,-1
 512 416 l 1,128,-1
 132 416 l 2,129,130
 100 416 100 416 90 409 c 0,131,132
 79 401 79 401 74 378 c 2,133,-1
 57 294 l 2,134,135
 55 286 55 286 55 279 c 0,136,137
 55 263 55 263 65 252 c 0,138,139
 74 241 74 241 98 222 c 2,140,-1
 112 212 l 1,141,-1
 213 143 l 1,142,-1
 36 143 l 1,107,-1
842 416 m 1,143,-1
 805 237 l 1,144,-1
 759 349 l 2,145,146
 757 353 757 353 753 361 c 0,147,148
 738 393 738 393 726 404 c 256,149,150
 715 415 715 415 689 416 c 2,151,-1
 604 416 l 2,152,153
 580 416 580 416 571 409 c 0,154,155
 561 401 561 401 555 372 c 2,156,-1
 476 0 l 1,157,-1
 535 0 l 1,158,-1
 605 333 l 2,159,160
 611 359 611 359 640 358 c 2,161,-1
 670 358 l 2,162,163
 685 358 685 358 693 351 c 256,164,165
 701 344 701 344 712 317 c 2,166,-1
 783 144 l 2,167,168
 798 101 798 101 818 101 c 0,169,170
 834 101 834 101 842 134 c 2,171,-1
 900 416 l 1,172,-1
 842 416 l 1,143,-1
858 0 m 2,173,174
 888 0 888 0 897 10 c 256,175,176
 906 20 906 20 910 43 c 2,177,-1
 989 416 l 1,178,-1
 930 416 l 1,179,-1
 859 76 l 2,180,181
 856 61 856 61 851 54 c 0,182,183
 845 48 845 48 830 45 c 2,184,-1
 796 45 l 2,185,186
 774 45 774 45 768 66 c 2,187,-1
 678 295 l 2,188,189
 669 321 669 321 652 321 c 0,190,191
 632 321 632 321 626 287 c 2,192,-1
 564 0 l 1,193,-1
 624 0 l 1,194,-1
 655 154 l 1,195,-1
 706 23 l 2,196,197
 713 8 713 8 727 4 c 0,198,199
 740 0 740 0 773 0 c 2,200,-1
 858 0 l 2,173,174
EndSplineSet
Validated: 41
EndChar

StartChar: asterisk
Encoding: 42 42 99
Width: 2406
Flags: W
LayerCount: 2
Fore
SplineSet
512 1178 m 2,0,-1
 2406 1178 l 1,1,-1
 2406 1229 l 1,2,-1
 512 1229 l 2,3,4
 409 1229 409 1229 340 1206 c 0,5,6
 271 1182 271 1182 230 1143 c 0,7,8
 189 1102 189 1102 167 1056 c 0,9,10
 143 1009 143 1009 116 932 c 2,11,-1
 102 896 l 1,12,-1
 -276 -256 l 1,13,-1
 2406 -256 l 1,14,-1
 2406 -205 l 1,15,-1
 -205 -205 l 1,16,-1
 164 896 l 1,17,-1
 172 915 l 2,18,19
 202 990 202 990 223 1033 c 0,20,21
 245 1075 245 1075 280 1109 c 0,22,23
 315 1142 315 1142 371 1160 c 0,24,25
 426 1178 426 1178 512 1178 c 2,0,-1
512 973 m 2,26,27
 473 973 473 973 446 946 c 256,28,29
 419 919 419 919 397 869 c 1,30,-1
 307 614 l 1,31,-1
 563 307 l 1,32,-1
 205 307 l 1,33,-1
 102 0 l 1,34,-1
 973 0 l 1,35,-1
 1075 307 l 1,36,-1
 819 614 l 1,37,-1
 1137 614 l 1,38,-1
 1265 973 l 1,39,-1
 512 973 l 2,26,27
1362 869 m 2,40,-1
 1075 0 l 1,41,-1
 1485 0 l 1,42,-1
 1613 410 l 1,43,-1
 1818 0 l 1,44,-1
 2253 0 l 1,45,-1
 2560 973 l 1,46,-1
 2150 973 l 1,47,-1
 1997 538 l 1,48,-1
 1785 973 l 1,49,-1
 1475 973 l 2,50,51
 1441 973 1441 973 1410 945 c 256,52,53
 1379 917 1379 917 1362 869 c 2,40,-1
EndSplineSet
Validated: 9
EndChar

StartChar: plus
Encoding: 43 43 100
Width: 1392
Flags: W
LayerCount: 2
Fore
SplineSet
358 614 m 1,0,-1
 0 614 l 1,1,-1
 0 0 l 1,2,-1
 369 0 l 1,3,-1
 984 614 l 1,4,-1
 538 614 l 1,5,-1
 358 410 l 1,6,-1
 358 614 l 1,0,-1
717 794 m 1,7,-1
 1162 794 l 1,8,-1
 1393 1024 l 1,9,-1
 922 1024 l 1,10,-1
 717 794 l 1,7,-1
0 1024 m 1,11,-1
 0 794 l 1,12,-1
 358 794 l 1,13,-1
 358 1024 l 1,14,-1
 0 1024 l 1,11,-1
EndSplineSet
Validated: 9
EndChar

StartChar: comma
Encoding: 44 44 101
Width: 936
Flags: W
LayerCount: 2
Fore
SplineSet
118 -205 m 1,0,-1
 323 0 l 1,1,-1
 138 0 l 1,2,-1
 36 -205 l 1,3,-1
 118 -205 l 1,0,-1
EndSplineSet
Validated: 9
EndChar

StartChar: hyphen
Encoding: 45 45 102
Width: 665
Flags: W
LayerCount: 2
Fore
SplineSet
563 276 m 1,0,-1
 563 461 l 1,1,-1
 102 461 l 1,2,-1
 102 276 l 1,3,-1
 563 276 l 1,0,-1
EndSplineSet
Validated: 9
EndChar

StartChar: period
Encoding: 46 46 103
Width: 317
Flags: W
LayerCount: 2
Fore
SplineSet
251 0 m 1,0,-1
 251 184 l 1,1,-1
 67 184 l 1,2,-1
 67 0 l 1,3,-1
 251 0 l 1,0,-1
EndSplineSet
Validated: 9
EndChar

StartChar: slash
Encoding: 47 47 104
Width: 665
Flags: W
LayerCount: 2
Fore
SplineSet
440 1024 m 1,0,-1
 41 -205 l 1,1,-1
 225 -205 l 1,2,-1
 625 1024 l 1,3,-1
 440 1024 l 1,0,-1
EndSplineSet
Validated: 9
EndChar
